<?xml version="1.0" encoding="utf-8"?>
<!-- Generator: Adobe Illustrator 22.1.0, SVG Export Plug-In . SVG Version: 6.00 Build 0)  -->
<svg version="1.1" id="Ebene_1" xmlns="http://www.w3.org/2000/svg" xmlns:xlink="http://www.w3.org/1999/xlink" x="0px" y="0px"
	 viewBox="0 0 640 480" style="enable-background:new 0 0 640 480;" xml:space="preserve">
<style type="text/css">
	.st0{opacity:0.3;}
	.st1{clip-path:url(#SVGID_2_);fill:#CED5DC;}
	.st2{fill:#CED5DC;}
	.st3{fill:#E1E7EC;}
	.st4{fill:#BEC8D2;}
	.st5{fill:#909090;}
	.st6{fill:#C8C8C8;}
	.st7{fill:#E8B434;}
	.st8{fill:#38D289;}
	.st9{fill:#FFFFFF;}
	.st10{fill:#E4E5E9;}
	.st11{fill:#586371;}
	.st12{clip-path:url(#SVGID_4_);}
	.st13{fill:#BFE1EF;}
	.st14{fill:#FAFAFA;}
	.st15{fill:#E95653;}
	.st16{fill:#E11E19;}
	.st17{fill:#F08E8C;}
	.st18{opacity:0.2;}
	.st19{clip-path:url(#SVGID_8_);}
	.st20{fill:#C60006;}
	.st21{fill:none;stroke:#586371;stroke-width:0.664;stroke-miterlimit:10;}
	.st22{fill:none;stroke:#586371;stroke-width:0.664;stroke-miterlimit:10;stroke-dasharray:2.678,2.678;}
	.st23{clip-path:url(#SVGID_12_);fill:#A3A3A3;}
	.st24{clip-path:url(#SVGID_12_);fill:#9E9E9E;}
	.st25{clip-path:url(#SVGID_14_);fill:#E95653;}
	.st26{clip-path:url(#SVGID_16_);fill:#858585;}
	.st27{clip-path:url(#SVGID_18_);fill:#858585;}
	.st28{fill:#DF1D18;}
</style>
<g class="st0">
	<g>
		<defs>
			<rect id="SVGID_1_" x="31" y="19.1" width="600.6" height="414.6"/>
		</defs>
		<clipPath id="SVGID_2_">
			<use xlink:href="#SVGID_1_"  style="overflow:visible;"/>
		</clipPath>
		<path class="st1" d="M626.8,38.2L626.8,38.2L611.7,23c0,0,0,0,0,0l0,0c-2.4-2.4-5.8-3.9-9.5-3.9H44.4c-7.4,0-13.4,6-13.4,13.4
			v371.9c0,3.6,1.4,6.9,3.8,9.3l0,0l0.1,0.1c0.1,0.1,0.2,0.2,0.3,0.3l14.7,14.5l0.1,0.1c0.1,0.1,0.1,0.1,0.2,0.2l0,0l0,0
			c2.5,2.9,6.1,4.8,10.3,4.8h557.8c7.4,0,13.4-6,13.4-13.4V48.4C631.6,44.3,629.7,40.6,626.8,38.2"/>
	</g>
</g>
<path class="st2" d="M615.7,404.4c0,7.4-6,12.5-13.4,12.5H44.4c-7.4,0-13.4-5.1-13.4-12.5V32.5c0-7.4,6-13.4,13.4-13.4h557.8
	c7.4,0,13.4,6,13.4,13.4V404.4z"/>
<path class="st3" d="M227.3,46.1l-8.7-14.6c-1-1.7-3.3-3.2-5.1-3.2H96.2c-1.7,0-4,1.4-4.9,3.2l-8.1,14.6H31v25.3h584.6V46.1H227.3z"
	/>
<path class="st4" d="M222.9,31.5l8.7,14.6h122.9l-8.7-14.6c-1-1.7-3.3-3.2-5.1-3.2H223.5c-0.9,0-1.9,0.4-2.8,1
	C221.6,29.9,222.4,30.6,222.9,31.5"/>
<path class="st5" d="M35.8,58.9l5.1,5.1l1.3-1.3c0-0.1-2.8-2.7-2.8-2.8l7.4,0c0-0.1,0-1.6,0-1.9c-1.3,0-6.1,0-7.4,0
	c0-0.1,2.8-2.7,2.8-2.8l-1.3-1.3L35.8,58.9z"/>
<path class="st6" d="M66.6,58.9l-5.1,5.1l-1.3-1.3c0-0.1,2.8-2.7,2.8-2.8l-7.4,0c0-0.1,0-1.6,0-1.9c1.3,0,6.1,0,7.4,0
	c0-0.1-2.8-2.7-2.8-2.8l1.3-1.3L66.6,58.9z"/>
<path class="st7" d="M60.8,33.3c0-2.7-2.2-4.9-4.9-4.9c-2.7,0-4.9,2.2-4.9,4.9c0,2.7,2.2,4.9,4.9,4.9C58.6,38.2,60.8,36,60.8,33.3"
	/>
<path class="st8" d="M75.3,33.3c0-2.7-2.2-4.9-4.9-4.9c-2.7,0-4.9,2.2-4.9,4.9c0,2.7,2.2,4.9,4.9,4.9C73.1,38.2,75.3,36,75.3,33.3"
	/>
<path class="st6" d="M215.9,37.2c0-2.7-2.2-4.9-4.9-4.9c-2.7,0-4.9,2.2-4.9,4.9c0,2.7,2.2,4.9,4.9,4.9
	C213.7,42.1,215.9,39.9,215.9,37.2"/>
<path class="st9" d="M588.4,63.9c0,1.7-1.4,3.2-3.2,3.2H99.5c-1.7,0-3.2-1.4-3.2-3.2V52.8c0-1.7,1.4-3.2,3.2-3.2h485.7
	c1.7,0,3.2,1.4,3.2,3.2V63.9z"/>
<path class="st10" d="M212.3,37.2l1.5-1.5c0,0.1-1.4-1.4-1.3-1.3c-0.3,0.3-0.9,0.9-1.5,1.5c-0.7-0.7-1.2-1.2-1.5-1.5
	c-0.2,0.2-1.2,1.2-1.3,1.3l1.5,1.5c-0.7,0.7-1.2,1.2-1.5,1.5c0.2,0.2,1.2,1.2,1.3,1.3l1.5-1.5l1.5,1.5c-0.1,0,1.4-1.4,1.3-1.3
	C213.6,38.4,213,37.9,212.3,37.2"/>
<path class="st11" d="M342.4,37.2c0-2.7-2.2-4.9-4.9-4.9c-2.7,0-4.9,2.2-4.9,4.9c0,2.7,2.2,4.9,4.9,4.9
	C340.2,42.1,342.4,39.9,342.4,37.2"/>
<path class="st9" d="M338.8,37.2l1.5-1.5c0,0.1-1.4-1.4-1.3-1.3c-0.3,0.3-0.9,0.9-1.5,1.5c-0.7-0.7-1.2-1.2-1.5-1.5
	c-0.2,0.2-1.2,1.2-1.3,1.3l1.5,1.5c-0.7,0.7-1.2,1.2-1.5,1.5c0.2,0.2,1.2,1.2,1.3,1.3l1.5-1.5L339,40c-0.1,0,1.4-1.4,1.3-1.3
	C340,38.4,339.5,37.9,338.8,37.2"/>
<path class="st5" d="M83.8,62.6c-2.1,0-3.7-1.7-3.7-3.7c0-2.1,1.7-3.7,3.7-3.7c1.3,0,2.4,0.6,3.1,1.6c-0.6,0-2.3,0-2.4,0l0,1.2
	l4.6-0.1l-0.1-4.6l-1.2,0c0,0,0,1.6,0,2.3c-1-1.2-2.5-2-4.1-2c-2.9,0-5.3,2.4-5.3,5.3s2.4,5.3,5.3,5.3c1.9,0,3.7-1,4.6-2.7L87,60.7
	C86.4,61.8,85.1,62.6,83.8,62.6"/>
<path class="st9" d="M31,71.4v332.1c0,7.4,6,13.4,13.4,13.4h557.8c7.4,0,13.4-6,13.4-13.4V71.4H31z"/>
<path class="st4" d="M350.9,31.5l6.8,11.3h24.5l-6.8-11.3c-1-1.7-3.3-3.2-5.1-3.2h-24.5C347.5,28.3,349.8,29.8,350.9,31.5"/>
<g>
	<defs>
		<rect id="SVGID_3_" x="232" y="108.5" width="190.4" height="264.8"/>
	</defs>
	<clipPath id="SVGID_4_">
		<use xlink:href="#SVGID_3_"  style="overflow:visible;"/>
	</clipPath>
	<g class="st12">
		<defs>
			<rect id="SVGID_5_" x="222.7" y="106.6" width="226" height="268.8"/>
		</defs>
		<clipPath id="SVGID_6_">
			<use xlink:href="#SVGID_5_"  style="overflow:visible;"/>
		</clipPath>
		<g transform="matrix(1 0 0 1 1.525879e-05 0)" style="clip-path:url(#SVGID_6_);">
			
				<image style="overflow:visible;" width="729" height="867" xlink:href="3737EB76.jpg"  transform="matrix(0.3101 0 0 0.3101 222.7477 106.5706)">
			</image>
		</g>
	</g>
</g>
<rect x="347" y="306.5" class="st13" width="38.1" height="31.2"/>
<rect x="324.2" y="302.7" class="st9" width="6.9" height="6.9"/>
<path class="st14" d="M359.1,332.7c2,4.8,6-1.1,8.9-1.7c2.1,4.3,9.6,3.7,14.3,2.6c0.6-0.1,1-0.4,0.4-0.7c-2.5-0.9-5.4,0.6-8,0.2
	c-2.8-0.4-2.9-2.1-4.8-3.2c-3.2-1.6-6,0.2-8,1.9c-0.2-0.6-0.7-1-1.2-1.6c-0.6-0.6-3.3-0.5-2.7,0.2
	C358.9,331.1,358.9,331.9,359.1,332.7"/>
<path class="st14" d="M383.6,342.3h-39.1v-3.9h39.1V342.3z M352.7,333.1l-2.7-2.7l2.7-2.7l-1.4-1.4l-2.7,2.7l-2.7-2.7l-1.4,1.4
	l2.7,2.7l-2.7,2.7l1.4,1.4l2.7-2.7l2.7,2.7L352.7,333.1"/>
<path class="st14" d="M382.3,308.4c-0.4,0.4-0.9,0.9-0.9,1.3c0,0.4,0.4,0.9,0.8,1.3c0.6,0.7,1.2,1.2,1.2,1.9c0,0.6-0.7,1.3-1.4,2
	l-5.4,5.4l-1.9-1.9l5.6-5.5l-1.3-1.3l-1.9,1.8l-4.9-4.9l5-5c0.5-0.5,1.4-0.5,1.8,0l3.1,3.1C382.9,307,382.9,307.9,382.3,308.4
	 M359.2,321.7l10.8-10.8l4.9,4.9l-10.8,10.8h-4.9V321.7z"/>
<polygon class="st15" points="66.5,369.1 66.5,387 66.4,444.8 29.7,424.6 29.8,366.7 29.9,348.8 "/>
<polyline class="st15" points="12.9,309.7 29.9,348.8 99.1,339.2 77.3,300.3 12.9,309.7 "/>
<path class="st16" d="M135.6,359.2l-0.1,55.6c0,11.1-8.3,21.3-18.4,22.7l-50.7,7.2l0.1-57.9l0-17.8L135.6,359.2z"/>
<path class="st15" d="M126.5,398.9C126.5,398.9,126.5,398.9,126.5,398.9c0-0.2-0.1-0.3-0.1-0.5c0,0,0-0.1-0.1-0.1
	c0-0.1-0.1-0.2-0.2-0.3c0,0,0-0.1-0.1-0.1c-0.1-0.1-0.2-0.2-0.3-0.3c-5.1-4.5-9.3-7.8-13.1-9.8l-0.7-0.4c3.8,2.1,8,5.3,13.1,9.8
	c0.1,0.1,0.2,0.2,0.3,0.3c0,0,0.1,0.1,0.1,0.1c0.1,0.1,0.1,0.2,0.2,0.3c0,0,0,0.1,0.1,0.1c0.1,0.1,0.1,0.3,0.1,0.5c0,0,0,0,0,0
	c0,0.2,0,0.3,0,0.5c0,0,0,0.1,0,0.1c0,0.1,0,0.3,0,0.4c0,0.1,0,0.1,0,0.2c0,0.2-0.1,0.3-0.1,0.5c0,0,0,0,0,0
	c-0.1,0.2-0.1,0.3-0.2,0.5c0,0,0,0.1-0.1,0.1c-0.1,0.1-0.2,0.3-0.3,0.4c-0.5,0.6-1.1,1.3-1.6,1.9c-0.2,0.2-0.3,0.4-0.5,0.5
	c-0.3,0.4-0.7,0.8-1,1.1c-0.3,0.3-0.6,0.7-0.9,1c-0.3,0.3-0.5,0.6-0.8,0.9c-0.3,0.3-0.6,0.6-0.9,1c-0.3,0.3-0.5,0.5-0.8,0.8
	c-0.3,0.3-0.6,0.6-0.9,0.9c-0.3,0.3-0.5,0.5-0.8,0.7c-0.3,0.3-0.6,0.6-0.9,0.8c-0.3,0.2-0.5,0.5-0.8,0.7c-0.2,0.1-0.3,0.3-0.5,0.4
	c-0.3,0.3-0.7,0.6-1,0.9c-0.2,0.1-0.3,0.3-0.5,0.4c-0.4,0.3-0.8,0.6-1.2,0.9c-0.1,0.1-0.2,0.1-0.3,0.2c-0.5,0.4-0.9,0.7-1.4,1
	c-0.1,0.1-0.2,0.1-0.3,0.2c-0.4,0.2-0.7,0.5-1,0.7c-0.1,0.1-0.3,0.2-0.4,0.3c-0.4,0.2-0.7,0.4-1.1,0.6c-0.1,0-0.2,0.1-0.3,0.2
	c-0.4,0.2-0.9,0.4-1.3,0.7c-0.3,0.1-0.6,0.3-0.9,0.4c-0.2,0.1-0.4,0.2-0.6,0.3c-0.3,0.1-0.6,0.2-0.9,0.3c-0.2,0.1-0.4,0.1-0.6,0.2
	c-0.3,0.1-0.7,0.2-1,0.3c-0.2,0-0.3,0.1-0.5,0.1c-0.5,0.1-1,0.2-1.5,0.3c-0.5,0.1-1,0.1-1.4,0.1c-0.1,0-0.1,0-0.2,0
	c-0.5,0-0.9,0-1.4,0c-0.1,0-0.2,0-0.3,0c-0.5,0-0.9-0.1-1.4-0.1c-0.1,0-0.1,0-0.2,0c-0.5-0.1-1-0.1-1.4-0.2c0,0,0,0,0,0
	c-0.4-0.1-0.9-0.2-1.3-0.3c-0.1,0-0.2-0.1-0.4-0.1c-0.5-0.1-0.9-0.3-1.4-0.5c0,0-0.1,0-0.1-0.1c-0.4-0.2-0.9-0.4-1.3-0.5
	c-0.1-0.1-0.3-0.1-0.4-0.2c-0.5-0.2-0.9-0.5-1.4-0.7l0.7,0.4c0.3,0.2,0.7,0.4,1,0.5c0.1,0.1,0.2,0.1,0.4,0.2
	c0.1,0.1,0.3,0.1,0.4,0.2c0.4,0.2,0.9,0.4,1.3,0.5c0,0,0.1,0,0.1,0.1c0.5,0.2,0.9,0.3,1.4,0.5c0.1,0,0.2,0.1,0.4,0.1
	c0.2,0,0.3,0.1,0.5,0.1c0.3,0.1,0.6,0.1,0.9,0.2c0,0,0,0,0,0c0.5,0.1,1,0.2,1.4,0.2c0.1,0,0.1,0,0.2,0c0.5,0.1,0.9,0.1,1.4,0.1
	c0.1,0,0.2,0,0.3,0c0.5,0,0.9,0,1.4,0c0.1,0,0.1,0,0.2,0c0.5,0,1-0.1,1.4-0.1c0.5-0.1,1-0.2,1.5-0.3c0.2,0,0.3-0.1,0.5-0.1
	c0.3-0.1,0.7-0.2,1-0.3c0.2-0.1,0.4-0.1,0.6-0.2c0.3-0.1,0.6-0.2,0.9-0.3c0.2-0.1,0.4-0.2,0.6-0.3c0.3-0.1,0.6-0.2,0.9-0.4
	c0,0,0.1,0,0.1,0c0.4-0.2,0.8-0.4,1.2-0.6c0.1,0,0.2-0.1,0.3-0.2c0.4-0.2,0.7-0.4,1.1-0.6c0.1-0.1,0.3-0.2,0.4-0.3
	c0.3-0.2,0.7-0.4,1-0.7c0.1-0.1,0.2-0.1,0.3-0.2c0,0,0.1-0.1,0.1-0.1c0.4-0.3,0.8-0.6,1.3-0.9c0.1-0.1,0.2-0.1,0.3-0.2
	c0.4-0.3,0.8-0.6,1.2-0.9c0.2-0.1,0.3-0.3,0.5-0.4c0.3-0.3,0.7-0.6,1-0.9c0.2-0.1,0.3-0.3,0.5-0.4c0.1-0.1,0.2-0.2,0.3-0.2
	c0.2-0.2,0.4-0.3,0.5-0.5c0.3-0.3,0.6-0.5,0.9-0.8c0.3-0.2,0.5-0.5,0.8-0.8c0.3-0.3,0.6-0.6,0.9-0.9c0.3-0.3,0.5-0.5,0.8-0.8
	c0.3-0.3,0.6-0.6,0.9-0.9c0.3-0.3,0.5-0.6,0.8-0.9c0.3-0.3,0.6-0.7,0.9-1c0.1-0.1,0.2-0.3,0.4-0.4c0.2-0.2,0.4-0.5,0.6-0.7
	c0.2-0.2,0.3-0.4,0.5-0.6c0.5-0.6,1-1.2,1.6-1.9c0,0,0,0,0,0c0.1-0.1,0.1-0.2,0.2-0.3c0,0,0.1-0.1,0.1-0.2c0,0,0-0.1,0.1-0.1
	c0,0,0,0,0-0.1c0.1-0.1,0.1-0.3,0.2-0.4c0,0,0,0,0,0c0,0,0,0,0,0c0.1-0.2,0.1-0.3,0.1-0.5c0,0,0-0.1,0-0.2c0-0.1,0-0.2,0-0.4
	c0,0,0-0.1,0-0.1C126.6,399.3,126.6,399.1,126.5,398.9"/>
<path class="st9" d="M100.4,389.2c0.9-0.1,1.7-0.1,2.6-0.1c6.8,0.6,11.1,7.2,9.7,14.8c-0.3,1.8-1,3.5-1.8,5l-7-2.9l2.5,8
	c-1.8,1.3-3.9,2.2-6,2.5c-0.9,0.1-1.7,0.1-2.6,0.1c-6.8-0.6-11.2-7.2-9.7-14.8C89.3,395.1,94.6,390,100.4,389.2"/>
<path class="st15" d="M104.4,389.3c0.2,0,0.4,0.1,0.6,0.2c0.2,0,0.3,0.1,0.5,0.2c0.2,0.1,0.3,0.1,0.5,0.2c0.2,0.1,0.3,0.1,0.5,0.2
	c0.2,0.1,0.4,0.2,0.7,0.3l-0.7-0.4c-0.1-0.1-0.2-0.1-0.4-0.2c-0.1,0-0.2-0.1-0.3-0.1c-0.2-0.1-0.3-0.1-0.5-0.2
	c-0.2-0.1-0.3-0.1-0.5-0.2c-0.2-0.1-0.3-0.1-0.5-0.2c-0.1,0-0.1,0-0.2-0.1c-0.1,0-0.3-0.1-0.4-0.1c-0.1,0-0.2,0-0.3-0.1
	c-0.3-0.1-0.7-0.1-1-0.1c-0.9-0.1-1.8-0.1-2.6,0.1c-0.3,0-0.7,0.1-1,0.2c-0.1,0-0.2,0.1-0.3,0.1c-0.2,0.1-0.5,0.1-0.7,0.2
	c-0.1,0-0.3,0.1-0.4,0.1c-0.2,0.1-0.4,0.1-0.6,0.2c-0.1,0.1-0.3,0.1-0.4,0.2c-0.1,0-0.2,0.1-0.3,0.1c-0.1,0-0.2,0.1-0.3,0.1
	c-0.2,0.1-0.4,0.2-0.6,0.3c-0.2,0.1-0.3,0.2-0.5,0.3c-0.2,0.1-0.4,0.2-0.5,0.3c-0.1,0.1-0.2,0.1-0.3,0.2c-0.1,0.1-0.2,0.1-0.2,0.2
	c-0.1,0.1-0.2,0.2-0.3,0.2c-0.2,0.1-0.4,0.3-0.5,0.4c-0.1,0.1-0.2,0.2-0.3,0.3c0,0-0.1,0.1-0.1,0.1c-0.2,0.2-0.4,0.3-0.5,0.5
	c0,0-0.1,0.1-0.1,0.1c-0.2,0.2-0.4,0.5-0.6,0.7c0,0,0,0,0,0.1c-0.3,0.4-0.7,0.8-1,1.3c0,0-0.1,0.1-0.1,0.1c-0.1,0.1-0.2,0.3-0.3,0.4
	c-0.1,0.1-0.1,0.2-0.2,0.3c-0.2,0.3-0.4,0.6-0.6,0.9c0,0,0,0,0,0c0,0.1-0.1,0.1-0.1,0.2c-0.2,0.3-0.3,0.6-0.4,0.9
	c-0.1,0.1-0.1,0.3-0.2,0.4c-0.1,0.2-0.2,0.4-0.3,0.7c0,0,0,0,0,0.1c-0.1,0.3-0.2,0.5-0.3,0.8c0,0.1-0.1,0.3-0.1,0.4
	c-0.1,0.4-0.2,0.8-0.3,1.2c-0.6,3.3-0.2,6.4,1.1,9c1,2,2.5,3.6,4.4,4.6l0.7,0.4c-4.3-2.3-6.7-7.7-5.6-13.5c0.1-0.4,0.2-0.8,0.3-1.2
	c0-0.1,0.1-0.3,0.1-0.4c0.1-0.3,0.2-0.5,0.3-0.8c0.1-0.2,0.2-0.5,0.3-0.7c0.1-0.1,0.1-0.3,0.2-0.4c0.1-0.3,0.3-0.6,0.4-0.9
	c0-0.1,0.1-0.1,0.1-0.2c0.2-0.3,0.4-0.6,0.6-1c0.1-0.1,0.1-0.2,0.2-0.3c0.1-0.2,0.2-0.4,0.4-0.5c0.3-0.4,0.6-0.9,1-1.3
	c0.2-0.3,0.5-0.5,0.7-0.8c0,0,0.1-0.1,0.1-0.1c0.2-0.2,0.4-0.4,0.7-0.6c0.1-0.1,0.2-0.2,0.3-0.3c0.2-0.1,0.4-0.3,0.5-0.4
	c0.1-0.1,0.2-0.2,0.3-0.2c0.2-0.1,0.3-0.2,0.5-0.3c0.2-0.1,0.4-0.2,0.5-0.3c0.2-0.1,0.3-0.2,0.5-0.3c0.2-0.1,0.4-0.2,0.6-0.3
	c0.2-0.1,0.3-0.2,0.5-0.2c0.1-0.1,0.3-0.1,0.4-0.2c0.2-0.1,0.4-0.2,0.6-0.2c0.1,0,0.3-0.1,0.4-0.1c0.2-0.1,0.4-0.1,0.7-0.2
	c0.1,0,0.2-0.1,0.3-0.1c0.3-0.1,0.7-0.1,1-0.2c0.9-0.1,1.7-0.1,2.6-0.1c0.3,0,0.7,0.1,1,0.1C104.2,389.3,104.3,389.3,104.4,389.3"/>
<path class="st17" d="M102.6,380.4c0.1,0,0.2,0,0.3,0c0.2,0,0.4,0,0.5,0c0.1,0,0.2,0,0.4,0c0.2,0,0.3,0,0.5,0c0.1,0,0.3,0,0.4,0
	c0.2,0,0.3,0,0.5,0c0.1,0,0.3,0,0.4,0c0.2,0,0.3,0,0.5,0.1c0.1,0,0.3,0,0.4,0.1c0.2,0,0.3,0.1,0.5,0.1c0.1,0,0.3,0.1,0.4,0.1
	c0.2,0,0.4,0.1,0.5,0.1c0.1,0,0.2,0.1,0.4,0.1c0.4,0.1,0.8,0.2,1.1,0.3c0.1,0,0.1,0,0.2,0.1c0.3,0.1,0.7,0.2,1,0.3
	c0.1,0,0.2,0.1,0.3,0.1c0.4,0.1,0.8,0.3,1.2,0.5c0.1,0,0.1,0.1,0.2,0.1c0.3,0.2,0.7,0.3,1.1,0.5c0.1,0.1,0.2,0.1,0.3,0.2
	c0.4,0.2,0.8,0.4,1.2,0.6c0,0,0,0,0,0l0,0c0,0,0,0,0,0l-0.7-0.4c-0.4-0.2-0.8-0.4-1.2-0.6c0,0-0.1-0.1-0.1-0.1
	c-0.1,0-0.1-0.1-0.2-0.1c-0.4-0.2-0.7-0.3-1.1-0.5c-0.1,0-0.1-0.1-0.2-0.1c-0.4-0.2-0.8-0.3-1.2-0.5c-0.1,0-0.2-0.1-0.3-0.1
	c-0.3-0.1-0.7-0.2-1-0.3c-0.1,0-0.1,0-0.2-0.1c-0.4-0.1-0.8-0.2-1.1-0.3c0,0-0.1,0-0.1,0c-0.1,0-0.2,0-0.3-0.1
	c-0.2,0-0.3-0.1-0.5-0.1c-0.1,0-0.3-0.1-0.4-0.1c-0.2,0-0.3-0.1-0.5-0.1c-0.1,0-0.3,0-0.4-0.1c-0.2,0-0.3,0-0.5-0.1
	c-0.1,0-0.3,0-0.4,0c-0.2,0-0.3,0-0.5,0c-0.1,0-0.3,0-0.4,0c-0.2,0-0.3,0-0.5,0c-0.1,0-0.2,0-0.4,0c-0.2,0-0.4,0-0.5,0
	c-0.1,0-0.2,0-0.3,0c-0.2,0-0.4,0-0.6,0c-0.1,0-0.2,0-0.3,0c-0.3,0-0.6,0-0.9,0.1c-0.2,0-0.4,0-0.6,0.1c-0.5,0.1-1.1,0.2-1.6,0.3
	c0,0-0.1,0-0.1,0c-0.5,0.1-1,0.3-1.5,0.4c0,0-0.1,0-0.1,0c-0.5,0.2-1,0.3-1.5,0.5c-0.1,0-0.1,0-0.2,0.1c-0.5,0.2-1,0.4-1.5,0.6
	c0,0-0.1,0-0.1,0c0,0-0.1,0-0.1,0.1c-0.4,0.2-0.7,0.3-1.1,0.5c0,0,0,0,0,0c-0.4,0.2-0.7,0.4-1.1,0.6c-0.1,0.1-0.2,0.1-0.3,0.2
	c-0.4,0.2-0.7,0.4-1.1,0.7c0,0,0,0,0,0c-0.4,0.2-0.7,0.5-1.1,0.7c0,0-0.1,0.1-0.1,0.1c0,0-0.1,0.1-0.1,0.1c-0.4,0.3-0.8,0.6-1.2,0.9
	c-0.1,0-0.1,0.1-0.2,0.1c-0.4,0.3-0.8,0.6-1.1,0.9c-0.1,0.1-0.1,0.1-0.2,0.2c-0.4,0.3-0.8,0.7-1.2,1c-0.1,0.1-0.2,0.2-0.3,0.2
	c-0.4,0.4-0.9,0.7-1.3,1.1c0,0,0,0,0,0c0,0-0.1,0.1-0.1,0.1c-0.3,0.3-0.6,0.5-0.9,0.8c-0.1,0.1-0.2,0.2-0.3,0.3
	c-0.2,0.2-0.4,0.4-0.7,0.6c-0.1,0.1-0.3,0.3-0.4,0.4c-0.2,0.2-0.4,0.4-0.6,0.6c-0.1,0.1-0.3,0.3-0.4,0.4c-0.2,0.2-0.4,0.4-0.6,0.6
	c-0.1,0.1-0.3,0.3-0.4,0.4c-0.2,0.2-0.4,0.5-0.7,0.7c-0.1,0.1-0.3,0.3-0.4,0.4c-0.2,0.3-0.5,0.5-0.7,0.8c-0.1,0.1-0.2,0.2-0.3,0.4
	c-0.4,0.4-0.7,0.8-1.1,1.2c-0.1,0.1-0.1,0.1-0.2,0.2c-0.3,0.4-0.6,0.7-1,1.1c0,0-0.1,0.1-0.1,0.1c0,0-0.1,0.1-0.1,0.2
	c-0.6,0.7-1.2,1.4-1.8,2.1c-0.2,0.2-0.3,0.4-0.4,0.6c0,0,0,0,0,0c0,0,0,0.1-0.1,0.1c-0.1,0.2-0.3,0.4-0.4,0.6c0,0,0,0.1-0.1,0.1
	c0,0,0,0.1,0,0.1c-0.1,0.3-0.3,0.6-0.4,0.9c0,0,0,0,0,0c0,0.1-0.1,0.2-0.1,0.3c0,0.1-0.1,0.2-0.1,0.3c0,0.1-0.1,0.3-0.1,0.4
	c0,0.1,0,0.2-0.1,0.3c0,0.1,0,0.3-0.1,0.4c0,0.1,0,0.1,0,0.2c0,0.2,0,0.4,0,0.7c0,1.8,0.6,3.4,1.8,4.4c5.2,4.7,9.8,8.1,14,10.4
	l0.7,0.4c-4.2-2.3-8.7-5.7-14-10.4c-1.2-1.1-1.8-2.6-1.8-4.4c0-0.2,0-0.4,0-0.7c0-0.1,0-0.1,0-0.2c0-0.1,0-0.3,0.1-0.4
	c0-0.1,0-0.2,0.1-0.3c0-0.1,0.1-0.3,0.1-0.4c0-0.1,0.1-0.2,0.1-0.3c0-0.1,0.1-0.2,0.1-0.4c0.1-0.3,0.2-0.6,0.4-0.9
	c0-0.1,0.1-0.1,0.1-0.2c0.1-0.2,0.2-0.4,0.4-0.6c0,0,0-0.1,0.1-0.1c0.1-0.2,0.3-0.4,0.4-0.6c0.6-0.7,1.2-1.4,1.8-2.1
	c0.1-0.1,0.1-0.2,0.2-0.2c0.3-0.4,0.6-0.7,1-1.1c0.1-0.1,0.1-0.1,0.2-0.2c0.4-0.4,0.7-0.8,1.1-1.2c0.1-0.1,0.2-0.2,0.3-0.4
	c0.3-0.3,0.5-0.5,0.8-0.8c0.1-0.1,0.3-0.3,0.4-0.4c0.2-0.2,0.4-0.5,0.7-0.7c0.1-0.1,0.3-0.3,0.4-0.4c0.2-0.2,0.4-0.4,0.6-0.6
	c0.1-0.1,0.3-0.3,0.4-0.4c0.2-0.2,0.4-0.4,0.6-0.6c0.1-0.1,0.3-0.3,0.4-0.4c0.2-0.2,0.5-0.4,0.7-0.6c0.1-0.1,0.2-0.2,0.3-0.3
	c0.3-0.3,0.6-0.6,0.9-0.8c0,0,0.1-0.1,0.1-0.1c0.4-0.4,0.9-0.8,1.3-1.1c0.1-0.1,0.2-0.2,0.3-0.2c0.4-0.4,0.8-0.7,1.3-1
	c0.1-0.1,0.1-0.1,0.2-0.2c0.4-0.3,0.8-0.6,1.1-0.9c0.1,0,0.1-0.1,0.2-0.1c0.4-0.3,0.8-0.6,1.2-0.9c0.1-0.1,0.2-0.1,0.3-0.2
	c0.4-0.3,0.7-0.5,1.1-0.7c0,0,0,0,0,0c0.4-0.2,0.7-0.5,1.1-0.7c0.1-0.1,0.2-0.1,0.3-0.2c0.7-0.4,1.5-0.8,2.2-1.2
	c0.1,0,0.2-0.1,0.2-0.1c0.5-0.2,1-0.4,1.5-0.6c0.1,0,0.1,0,0.2-0.1c0.5-0.2,1-0.4,1.5-0.5c0,0,0.1,0,0.1,0c0.5-0.2,1-0.3,1.5-0.4
	c0,0,0.1,0,0.1,0c0.5-0.1,1.1-0.2,1.6-0.3c0.2,0,0.4-0.1,0.6-0.1c0.3,0,0.6-0.1,0.9-0.1c0.1,0,0.2,0,0.3,0
	C102.2,380.4,102.4,380.4,102.6,380.4"/>
<path class="st9" d="M128.6,394c1.3,1.2,2,2.9,2,4.9c0,2-0.7,3.9-2.1,5.5c-11.3,13.2-19.3,19-27.4,20.2c-8.6,1.2-17.1-2.9-29.2-13.7
	c-1.2-1.1-1.8-2.6-1.8-4.4c0-1.8,0.7-3.5,1.9-4.9c11.5-13.5,20-19.8,28.2-20.9c0.2,0,0.4-0.1,0.6-0.1
	C108.9,379.7,116.9,383.6,128.6,394 M125.8,401.6c1.1-1.2,1.1-3.1,0-4c-11.2-9.9-18.2-13.5-25.6-12.6c-6,0.8-16.3,7.3-24.5,18.7
	c-0.9,1.3-0.9,3,0.1,3.9c9.2,9.5,17,13.7,24.9,12.6C108.5,419.1,116.4,412.9,125.8,401.6"/>
<polygon class="st17" points="33.4,365.5 36.1,365.1 39.8,366.3 37.1,366.6 "/>
<polygon class="st16" points="42.3,404.2 45,403.9 41.3,413.7 38.6,414.1 "/>
<polygon class="st17" points="37.1,366.6 39.8,366.3 45.4,390.7 42.7,391 "/>
<polygon class="st17" points="44.4,398.4 47.1,398.1 54.4,429.6 51.7,429.9 "/>
<polygon class="st16" points="50.2,383 52.9,382.7 47.1,398.1 44.4,398.4 "/>
<polygon class="st17" points="46.2,381.7 48.9,381.4 52.9,382.7 50.2,383 "/>
<polygon class="st9" points="37.1,366.6 42.7,391 46.2,381.7 50.2,383 44.4,398.4 51.7,429.9 47.6,427.1 42.3,404.2 38.6,414.1 
	34.9,412.4 40.6,396.9 33.4,365.5 "/>
<g class="st18">
	<g>
		<defs>
			<rect id="SVGID_7_" x="167" y="105.5" width="303.5" height="180.4"/>
		</defs>
		<clipPath id="SVGID_8_">
			<use xlink:href="#SVGID_7_"  style="overflow:visible;"/>
		</clipPath>
		<g class="st19">
			<defs>
				<rect id="SVGID_9_" x="167" y="105.5" width="303.5" height="180.4"/>
			</defs>
			<clipPath id="SVGID_10_">
				<use xlink:href="#SVGID_9_"  style="overflow:visible;"/>
			</clipPath>
			<g style="clip-path:url(#SVGID_10_);">
				
					<image style="overflow:visible;" width="286" height="170" xlink:href="3737EB7A.png"  transform="matrix(1.0612 0 0 1.0612 167.005 105.453)">
				</image>
			</g>
		</g>
	</g>
</g>
<polygon class="st17" points="134.5,359.4 66.8,369 30.9,349.2 98.6,339.5 "/>
<polygon class="st20" points="122.2,361 65.1,369.4 35.4,353.4 92.5,345.3 "/>
<path class="st21" d="M159.3,258.8c-0.5,0.1-0.9,0.1-1.4,0.2"/>
<path class="st22" d="M155.1,259.6c-15.5,4.4-21.5,21.6-33.1,40.3c-14,22.7-81.4-26.4-55.1-44.3c35.5-24.2-9.7,78.6,14.8,100.1"/>
<path class="st21" d="M82.8,356.7c0.4,0.3,0.8,0.5,1.2,0.8"/>
<polygon class="st15" points="173.8,241.5 173.8,250.7 173.8,280.8 154.7,270.3 154.8,240.2 154.8,230.9 "/>
<polygon class="st17" points="209.7,236.3 173.8,241.5 154.8,230.9 190.7,225.8 "/>
<path class="st16" d="M209.8,236.3l-0.1,28.9c0,5.8-4.3,11.1-9.6,11.8l-26.4,3.8v-30.1v-9.3L209.8,236.3z"/>
<path class="st17" d="M200.3,267.6c-0.4-0.1-0.8-0.1-1.3,0c-0.6,0.1-1.2,0.3-1.8,0.4c-0.6,0.2-1.2,0.4-1.8,0.4c-0.2,0-0.5,0-0.7,0
	c-0.2,0-0.3,0-0.4,0c0,0-0.1,0-0.1,0c-0.1,0-0.2,0-0.2,0c-0.1,0-0.2-0.1-0.3-0.1c0,0,0,0-0.1,0c-0.1,0-0.2-0.1-0.2-0.1l0.5,0.3
	c0,0,0.1,0,0.1,0c0,0,0.1,0,0.1,0.1c0,0,0,0,0,0c0.1,0,0.2,0.1,0.2,0.1c0,0,0,0,0,0c0.1,0,0.2,0,0.2,0c0,0,0.1,0,0.1,0
	c0.1,0,0.3,0,0.4,0c0.2,0,0.5,0,0.7,0c0.6-0.1,1.2-0.3,1.8-0.4c0.6-0.2,1.2-0.4,1.8-0.5c0.4-0.1,0.9-0.1,1.3,0L200.3,267.6z"/>
<g>
	<defs>
		<path id="SVGID_11_" d="M200.8,267.9C200.8,267.9,200.8,267.9,200.8,267.9l-0.5-0.3c0,0,0,0,0,0L200.8,267.9z"/>
	</defs>
	<clipPath id="SVGID_12_">
		<use xlink:href="#SVGID_11_"  style="overflow:visible;"/>
	</clipPath>
	<path class="st23" d="M200.8,267.9l-0.5-0.3c0,0,0,0,0,0L200.8,267.9C200.8,267.9,200.8,267.9,200.8,267.9"/>
	<path class="st24" d="M200.8,267.9l-0.5-0.3c0,0,0,0,0,0L200.8,267.9C200.8,267.9,200.8,267.9,200.8,267.9"/>
</g>
<g>
	<defs>
		<path id="SVGID_13_" d="M191.3,268.9l0.5,0.3c-0.6-0.3-1-0.8-1.3-1.4l-0.5-0.3C190.3,268.2,190.8,268.6,191.3,268.9"/>
	</defs>
	<clipPath id="SVGID_14_">
		<use xlink:href="#SVGID_13_"  style="overflow:visible;"/>
	</clipPath>
	<path class="st25" d="M191.8,269.2l-0.5-0.3c-0.6-0.3-1-0.7-1.3-1.4l0.5,0.3C190.8,268.5,191.3,268.9,191.8,269.2"/>
</g>
<path class="st17" d="M187.2,268.2L187.2,268.2c0.2-0.1,0.3-0.3,0.4-0.4c0,0,0,0,0,0c0.1-0.1,0.3-0.2,0.4-0.3c0,0,0,0,0,0
	c0.1-0.1,0.3-0.2,0.4-0.2c0,0,0,0,0,0c0.1-0.1,0.3-0.1,0.4-0.2c0,0,0.1,0,0.1,0c0.1,0,0.1,0,0.2-0.1c0,0,0.1,0,0.1,0
	c0.1,0,0.1,0,0.2-0.1c0,0,0.1,0,0.1,0c0.1,0,0.1,0,0.2-0.1c0,0,0.1,0,0.1,0c0.1,0,0.2,0,0.3-0.1c0.1,0,0.3,0,0.4,0c0,0,0.1,0,0.1,0
	c0.1,0,0.2,0,0.3,0c0,0,0.1,0,0.1,0c0.1,0,0.2,0,0.4,0.1c0,0,0,0,0,0c0.1,0,0.3,0.1,0.4,0.1l-0.5-0.3c-0.1-0.1-0.3-0.1-0.4-0.1
	c0,0,0,0,0,0c0,0,0,0,0,0c-0.1,0-0.2-0.1-0.4-0.1c0,0-0.1,0-0.1,0c-0.1,0-0.2,0-0.3,0c0,0-0.1,0-0.1,0c-0.1,0-0.3,0-0.4,0
	c-0.1,0-0.2,0-0.3,0.1c0,0-0.1,0-0.1,0c-0.1,0-0.1,0-0.2,0.1c0,0-0.1,0-0.1,0c-0.1,0-0.1,0-0.2,0.1c0,0-0.1,0-0.1,0
	c-0.1,0-0.1,0-0.2,0.1c0,0,0,0-0.1,0c0,0,0,0,0,0c-0.1,0.1-0.3,0.1-0.4,0.2c0,0,0,0,0,0c-0.1,0.1-0.3,0.2-0.4,0.2c0,0,0,0,0,0
	c0,0,0,0,0,0c-0.2,0.1-0.3,0.2-0.4,0.3c0,0,0,0,0,0c-0.1,0.1-0.3,0.2-0.4,0.4l0,0l0,0c-0.1,0.1-0.3,0.3-0.4,0.4c0,0,0,0,0,0
	c-0.1,0.1-0.3,0.3-0.4,0.4c0,0,0,0,0,0l0.5,0.3c0.1-0.1,0.3-0.3,0.4-0.4c0,0,0,0,0,0C186.9,268.5,187.1,268.3,187.2,268.2"/>
<path class="st15" d="M184.4,270c-0.2-0.5-0.2-1.1-0.7-1.6c0,0-0.1-0.1-0.1-0.1c0,0,0,0,0,0c0,0,0,0,0-0.1c0,0,0-0.1,0-0.1l0,0
	c0,0,0.1,0,0.1-0.1c0,0,0,0,0.1,0c0,0,0,0,0.1,0c0,0,0,0,0,0c0,0,0.1,0,0.1,0c0,0,0,0,0.1,0c0,0,0.1,0,0.1,0c0,0,0,0,0.1,0
	c0.1,0,0.1,0,0.2,0c0.1,0,0.2,0,0.2,0c0,0,0,0,0.1,0c0.1,0,0.1,0,0.2,0c0,0,0.1,0,0.1,0c0.1,0,0.1,0,0.2,0c0,0,0,0,0,0
	c0.1,0,0.1,0,0.2,0.1l-0.5-0.3c0,0,0,0,0,0c0,0-0.1,0-0.1-0.1c0,0,0,0,0,0c0,0,0,0,0,0c-0.1,0-0.1,0-0.2,0c0,0,0,0-0.1,0
	c-0.1,0-0.1,0-0.2,0c0,0,0,0-0.1,0c-0.1,0-0.2,0-0.2,0c-0.1,0-0.1,0-0.2,0c0,0,0,0-0.1,0c0,0-0.1,0-0.1,0c0,0,0,0-0.1,0
	c0,0-0.1,0-0.1,0c0,0,0,0,0,0c0,0,0,0,0,0c0,0,0,0-0.1,0c0,0,0,0-0.1,0c0,0,0,0,0,0c0,0,0,0-0.1,0c0,0,0,0,0,0c0,0,0,0,0,0
	c0,0,0,0,0,0c0,0,0,0,0,0c0,0,0,0,0,0c0,0,0,0,0,0c0,0,0,0,0,0c0,0,0,0,0,0.1c0,0,0,0,0,0c0,0,0,0.1,0.1,0.1c0.5,0.5,0.5,1,0.7,1.6
	c0.2,0.6,0.5,0.9,0.8,1.1l0.5,0.3C184.9,270.9,184.6,270.6,184.4,270"/>
<path class="st9" d="M190.2,266.6c0.6-0.1,1.1,0,1.7,0.2c1.3,0.7,1.3,1.9,3.3,2c0.2,0,0.5,0,0.7,0c0.6-0.1,1.2-0.3,1.8-0.4
	c0.6-0.2,1.2-0.4,1.8-0.4c0.4-0.1,0.9-0.1,1.3,0c0.4,0.2,0.1,0.4-0.3,0.6c-1.3,0.5-2.9,1-4.4,1.2c-2.4,0.3-4.6,0-5.5-1.8
	c-1.4,0.5-3.3,3.1-4.7,3.3c-0.6,0.1-1.1-0.2-1.5-1.2c-0.2-0.5-0.2-1.1-0.7-1.6c-0.3-0.3,0.2-0.5,0.8-0.6c0.4-0.1,0.9,0,1.1,0.1
	c0.4,0.4,0.7,0.6,0.8,1.1C187.4,268,188.7,266.8,190.2,266.6"/>
<path class="st15" d="M199,253.1C199,253.1,199,253.1,199,253.1c0-0.1,0-0.1,0-0.2c0,0,0,0,0,0c0,0,0-0.1-0.1-0.1l-0.3-0.3l-0.5-0.3
	l0.3,0.3c0,0,0.1,0.1,0.1,0.1c0,0,0,0,0,0c0,0,0,0.1,0,0.1c0,0,0,0,0,0c0,0,0,0.1,0,0.1c0,0,0,0,0,0c0,0.1,0,0.1-0.1,0.2l0.5,0.3
	c0,0,0,0,0,0c0,0,0,0,0-0.1c0,0,0,0,0-0.1c0,0,0,0,0,0c0,0,0,0,0,0C199,253.2,199,253.1,199,253.1"/>
<g>
	<defs>
		<path id="SVGID_15_" d="M198.1,252.2l0.5,0.3c0,0,0,0-0.1-0.1L198.1,252.2C198,252.2,198,252.2,198.1,252.2"/>
	</defs>
	<clipPath id="SVGID_16_">
		<use xlink:href="#SVGID_15_"  style="overflow:visible;"/>
	</clipPath>
	<path class="st26" d="M198.6,252.5l-0.5-0.3c0,0,0,0-0.1-0.1L198.6,252.5C198.5,252.5,198.6,252.5,198.6,252.5"/>
</g>
<path class="st17" d="M196.1,258.5C196.1,258.5,196.1,258.4,196.1,258.5c-0.1-0.1-0.1-0.2-0.1-0.2c0,0,0,0,0-0.1
	c0-0.1,0-0.2-0.1-0.2c0,0,0,0,0,0c0-0.1,0-0.2,0-0.3c0,0,0-0.1,0-0.1c0-0.1,0-0.1,0-0.2c0,0,0-0.1,0-0.1c0-0.1,0-0.2,0.1-0.2
	c0,0,0,0,0,0c0-0.1,0.1-0.2,0.1-0.3c0,0,0,0,0,0c0-0.1,0.1-0.2,0.2-0.2l2.6-3.1l-0.5-0.3l-2.6,3.1c0,0-0.1,0.1-0.1,0.1
	c0,0,0,0.1-0.1,0.1c0,0,0,0,0,0c0,0,0,0,0,0c0,0.1-0.1,0.2-0.1,0.2c0,0,0,0,0,0c0,0,0,0,0,0c0,0.1,0,0.2-0.1,0.2c0,0,0,0.1,0,0.1
	c0,0.1,0,0.1,0,0.2c0,0,0,0.1,0,0.1c0,0.1,0,0.2,0,0.3c0,0,0,0,0,0c0,0.1,0,0.2,0.1,0.2c0,0,0,0,0,0.1c0,0.1,0.1,0.1,0.1,0.2
	c0,0,0,0,0,0.1c0,0.1,0.1,0.1,0.2,0.2c0,0,0,0,0.1,0.1l0.5,0.3c0,0,0,0-0.1,0C196.2,258.6,196.2,258.6,196.1,258.5"/>
<g>
	<defs>
		<path id="SVGID_17_" d="M196.3,253.3l0.5,0.3c0,0,0,0-0.1-0.1L196.3,253.3C196.2,253.3,196.2,253.3,196.3,253.3"/>
	</defs>
	<clipPath id="SVGID_18_">
		<use xlink:href="#SVGID_17_"  style="overflow:visible;"/>
	</clipPath>
	<path class="st27" d="M196.8,253.6l-0.5-0.3c0,0-0.1,0-0.1-0.1L196.8,253.6C196.7,253.5,196.8,253.6,196.8,253.6"/>
</g>
<polygon class="st15" points="196.7,253.5 196.2,253.2 193.4,250.6 193.9,250.9 "/>
<path class="st9" d="M200.4,251.5c0.4,0.4,0.9,0.8,0.8,1.3c0,0.5-0.5,1-0.9,1.6l-3.5,4.2c-0.1,0.1-0.2,0.2-0.3,0.2
	c-0.1,0-0.2,0-0.3-0.1c-0.6-0.5-0.5-1.5,0-2.2l2.6-3.1c0.2-0.2,0.2-0.5,0-0.6l-0.3-0.3c-0.1-0.1-0.2-0.1-0.3-0.1
	c-0.1,0-0.2,0.1-0.3,0.2l-0.7,0.9c-0.1,0.1-0.2,0.2-0.3,0.2c-0.1,0-0.2,0-0.3-0.1l-2.8-2.7c-0.2-0.2-0.2-0.4,0-0.6l3.2-3.9
	c0.2-0.2,0.4-0.3,0.6-0.4c0.2,0,0.5,0,0.6,0.2l2.1,2c0.4,0.3,0.4,0.9,0,1.4c-0.3,0.4-0.6,0.7-0.6,1.1
	C199.8,250.9,200.1,251.2,200.4,251.5"/>
<path class="st17" d="M197.4,246.1C197.4,246.1,197.4,246.1,197.4,246.1c0.1-0.1,0.1-0.1,0.2-0.1c0,0,0,0,0,0c0.1,0,0.1,0,0.2,0
	c0.1,0,0.1,0,0.2,0c0,0,0,0,0,0c0.1,0,0.1,0,0.2,0.1l-0.5-0.3c0,0,0,0,0,0c0,0-0.1,0-0.1,0c0,0,0,0,0,0c0,0,0,0,0,0
	c-0.1,0-0.1,0-0.2,0c-0.1,0-0.1,0-0.2,0c0,0,0,0,0,0c0,0,0,0-0.1,0c0,0,0,0,0,0c0,0,0,0-0.1,0c0,0,0,0,0,0c0,0,0,0-0.1,0
	c0,0,0,0,0,0c0,0,0,0,0,0c0,0-0.1,0.1-0.1,0.1c0,0,0,0,0,0l-3.2,3.9c0,0,0,0,0,0c0,0,0,0,0,0.1c0,0,0,0,0,0.1c0,0,0,0,0,0
	c0,0,0,0,0,0c0,0,0,0.1,0,0.1c0,0,0,0,0,0c0,0,0,0.1,0,0.1c0,0,0,0,0,0c0,0,0,0.1,0.1,0.1l0.5,0.3c0,0-0.1-0.1-0.1-0.1c0,0,0,0,0,0
	c0,0,0-0.1,0-0.1c0,0,0,0,0,0c0,0,0-0.1,0-0.1c0,0,0,0,0,0c0-0.1,0-0.1,0.1-0.2l3.2-3.9c0,0,0.1-0.1,0.1-0.1c0,0,0,0,0,0
	C197.3,246.2,197.3,246.1,197.4,246.1"/>
<path class="st17" d="M191.9,252.8c0,0,0.1,0,0.1,0c0,0,0.1,0,0.1,0l-0.5-0.3c0,0,0,0,0,0c0,0,0,0-0.1,0c0,0,0,0,0,0
	c0,0-0.1,0-0.1,0c0,0-0.1,0-0.1,0c0,0,0,0,0,0c0,0,0,0,0,0c0,0,0,0,0,0c0,0,0,0,0,0c0,0,0,0,0,0c0,0,0,0,0,0l-7.1,8.7l0.5,0.3
	l7.1-8.7c0,0,0.1-0.1,0.1-0.1c0,0,0,0,0,0C191.8,252.8,191.9,252.8,191.9,252.8"/>
<path class="st15" d="M184.4,265l0-3c0-0.1,0-0.1,0-0.2c0-0.1,0-0.1,0.1-0.2l-0.5-0.3c0,0,0,0,0,0c0,0,0,0,0,0.1c0,0,0,0,0,0.1
	c0,0.1,0,0.1,0,0.2l0,3c0,0.2,0.1,0.3,0.2,0.3l0.5,0.3C184.5,265.3,184.4,265.2,184.4,265"/>
<path class="st9" d="M192.2,252.9l2.8,2.7c0.2,0.2,0.2,0.4,0,0.6l-7.1,8.7c-0.1,0.1-0.2,0.2-0.3,0.2l-2.8,0.4
	c-0.2,0-0.4-0.1-0.4-0.4l0-3c0-0.1,0-0.2,0.1-0.3l7.1-8.7c0.1-0.1,0.2-0.2,0.3-0.2S192.1,252.8,192.2,252.9"/>
<polygon class="st17" points="157.2,238.7 158.7,238.5 160.9,239.8 159.5,240 "/>
<polygon class="st28" points="162,259.5 163.5,259.3 161.5,264.6 160,264.8 "/>
<polygon class="st17" points="159.4,240 160.9,239.8 163.7,252.3 162.3,252.4 "/>
<polygon class="st17" points="163.2,256.4 164.6,256.2 168.5,272.9 167.1,273 "/>
<polygon class="st28" points="166.3,248.1 167.7,247.9 164.6,256.2 163.2,256.4 "/>
<polygon class="st17" points="164.3,246.8 165.8,246.6 167.7,247.9 166.3,248.1 "/>
<polygon class="st9" points="159.4,239.9 162.3,252.4 164.3,246.8 166.3,248.1 163.2,256.4 167.1,273 164.9,271.8 162,259.5 
	160,264.8 158.1,263.7 161.1,255.6 157.2,238.7 "/>
</svg>
