<?xml version="1.0" encoding="utf-8"?>
<!-- Generator: Adobe Illustrator 22.1.0, SVG Export Plug-In . SVG Version: 6.00 Build 0)  -->
<svg version="1.1" id="Ebene_1" xmlns="http://www.w3.org/2000/svg" xmlns:xlink="http://www.w3.org/1999/xlink" x="0px" y="0px"
	 viewBox="0 0 640 480" style="enable-background:new 0 0 640 480;" xml:space="preserve">
<style type="text/css">
	.st0{opacity:0.46;}
	.st1{clip-path:url(#SVGID_2_);fill:#EFF1F4;}
	.st2{fill:none;stroke:#CACFD2;stroke-width:2.479;stroke-miterlimit:10;stroke-dasharray:2.83,4.851;}
	.st3{fill:#E95653;}
	.st4{fill:#FFFFFF;}
	.st5{fill:#7CB892;}
	.st6{fill:#DEE3E8;}
	.st7{fill:#BEC8D2;}
</style>
<g class="st0">
	<g>
		<defs>
			<rect id="SVGID_1_" x="85.7" y="435.4" width="451.5" height="39.6"/>
		</defs>
		<clipPath id="SVGID_2_">
			<use xlink:href="#SVGID_1_"  style="overflow:visible;"/>
		</clipPath>
		<rect x="85.7" y="435.4" class="st1" width="451.5" height="39.6"/>
	</g>
</g>
<path class="st2" d="M493.3,409.5H123.9c-24.2,0-43.9-19.8-43.9-43.9V230.3c0-24.2,19.8-43.9,43.9-43.9h369.4
	c24.2,0,43.9,19.8,43.9,43.9v135.3C537.2,389.7,517.5,409.5,493.3,409.5z"/>
<path class="st3" d="M173.1,84.3c13.5,39.8-7.9,83.1-47.8,96.6c-39.8,13.5-83.1-7.9-96.6-47.7C15.3,93.2,36.7,50,76.5,36.5
	C116.4,23,159.6,44.4,173.1,84.3"/>
<path class="st3" d="M362,71.2c7.2,41.5-20.6,80.9-62,88.2c-41.5,7.2-80.9-20.6-88.2-62c-7.2-41.5,20.6-80.9,62-88.2
	C315.3,1.9,354.8,29.7,362,71.2"/>
<path class="st3" d="M566.4,89.3c7.2,41.4-20.5,80.9-62,88.1c-41.4,7.2-80.9-20.5-88.1-62c-7.2-41.4,20.5-80.9,62-88.1
	C519.8,20.1,559.2,47.9,566.4,89.3"/>
<path class="st4" d="M157.1,140.5l-95.9,28.7l-2.9-9.6l95.9-28.7L157.1,140.5 M74.6,140.6l-8.7-4.7l4.7-8.7l-4.4-2.4l-4.7,8.7
	l-8.7-4.7l-2.4,4.4l8.7,4.7l-4.7,8.7l4.4,2.4l4.7-8.7l8.7,4.7L74.6,140.6 M122.6,51.5l12.1,19.4l-4.4,2.9c-3.7-3.6-6.8-6.9-9.9-8.5
	c-3.6-1.5-6.5-0.7-9.4,0.2l-12,3.6l15.1,50.4c0.7,2.4,1.4,4.8,3.2,5.3c1.7,0.5,5.1-0.5,8.4-1.5l1.4,4.8l-28.8,8.6l-1.4-4.8
	c3.4-1,6.2-1.9,7.9-3.4c1.2-1.4,0.4-3.8-0.3-6.2L89.5,71.9l-12,3.6c-2.9,0.9-5.8,1.7-8.1,4.5c-1.8,2.6-2.9,7.7-3.6,12.6l-5.2,0
	l-0.4-22.4L122.6,51.5z"/>
<path class="st4" d="M337.2,130.1H227.9v-10.9h109.3V130.1z M250.9,104.4l-7.7-7.7l7.7-7.6l-3.8-3.8l-7.7,7.6l-7.7-7.6l-3.8,3.8
	l7.7,7.6l-7.7,7.7l3.8,3.8l7.7-7.7l7.7,7.7L250.9,104.4 M326.3,37.2h-54.6c-6,0-10.9,4.9-10.9,10.9v49.2c0,6,4.9,10.9,10.9,10.9
	h54.6c6,0,10.9-4.9,10.9-10.9V48.1C337.2,42.1,332.3,37.2,326.3,37.2 M271.7,97.3l14.2-18l9.8,12l13.1-18l17.5,24H271.7z
	 M287.5,56.8c0,4.4-3.8,8.2-8.2,8.2c-4.4,0-8.2-3.3-8.2-8.2c0-4.9,3.8-8.2,8.2-8.2C283.7,48.6,287.5,52.5,287.5,56.8"/>
<path class="st4" d="M527.6,162.3l-101.3-21.5l2.2-10.1l101.3,21.5L527.6,162.3 M452.7,121.5l-4.3,2.8l-5.6-8.6l-8.6,5.6l-2.8-4.3
	l8.6-5.6l-5.6-8.6l4.3-2.8l5.6,8.6l8.6-5.6l2.8,4.3l-8.6,5.6L452.7,121.5 M481.8,108.6c-2.4,3.7-9.5,17.6-15.1,19
	c-4.5,1.2-7.6-4.3-5.7-8.1c6.1-13.5,24.3-29.8,29.3-38.2C503.5,64,504.6,53.7,511,53.4c5.9-0.3,9.8,6.3,1.3,11.4
	c0.3,26,1,25.1,4.1,52.7c5,31.2,11.9,6.2,17.6,14.3c3.2,4.9-9.8,21.2-20.7,5.1c-2.9-3.8-4-10.9-4.3-12c-1.7-6.7-1.6-9.9-1.6-12.5
	c-4.1-0.9-15.9,0.3-20.4,1.5C482.2,114.5,478.8,112.8,481.8,108.6 M506.9,100.2c-0.1-2.1-0.4-10.7-1.1-24.6c-0.3-1.1-0.1-2.1,0-2.6
	l-18.1,27.9c1.6-0.2,3.8-0.3,5.3,0.1c1,0.2,4.3-0.2,9.7-0.6C504.3,100.2,505.3,100.4,506.9,100.2"/>
<polygon class="st5" points="180.2,380.5 164.2,365.2 179.6,349.2 171.6,341.5 156.3,357.5 140.3,342.1 132.7,350.1 148.6,365.5 
	133.2,381.4 141.2,389.1 156.6,373.1 172.5,388.5 "/>
<rect x="374.2" y="209.7" transform="matrix(0.7071 -0.7071 0.7071 0.7071 -14.182 420.3771)" class="st6" width="252.3" height="35.2"/>
<path class="st6" d="M606.8,105.7l15.2,15.2l8.3-8.3c1-1,1.7-2.5,1.7-4.1c0-1.6-0.7-3.1-1.7-4.1l-6.9-6.9c-1.1-1.1-2.5-1.7-4.2-1.7
	c-1.6,0-3.1,0.6-4.1,1.7L606.8,105.7z"/>
<path class="st7" d="M597.8,105c1.1-1.1,2.5-1.7,4.2-1.7c1.6,0,3.1,0.6,4.1,1.7l16.6,16.6c1.1,1.1,1.7,2.5,1.7,4.2
	c0,1.6-0.7,3.1-1.7,4.1L602,150.6l-24.9-24.9L597.8,105z"/>
<path class="st7" d="M577.1,125.7l-5.5,5.5c-1.2-1.2-2.9-1.9-4.6-1.9c-1.7,0-3.4,0.7-4.6,1.9l-57.5,57.5l-5.5-5.5l57.6-57.6
	c2.7-2.7,6.3-4.2,10.1-4.2C570.8,121.5,574.4,123,577.1,125.7"/>
<path class="st7" d="M389.2,344.3l-8.6,4.6c-0.5,0.3-1.2,0.2-1.6-0.2c-0.4-0.4-0.5-1.1-0.2-1.6l4.6-8.6L389.2,344.3z"/>
<polygon class="st7" points="381.4,336.4 391.3,346.3 423.6,328.9 398.7,304.1 "/>
</svg>
