<?xml version="1.0" encoding="utf-8"?>
<!-- Generator: Adobe Illustrator 22.1.0, SVG Export Plug-In . SVG Version: 6.00 Build 0)  -->
<svg version="1.1" id="Ebene_1" xmlns="http://www.w3.org/2000/svg" xmlns:xlink="http://www.w3.org/1999/xlink" x="0px" y="0px"
	 viewBox="0 0 640 480" style="enable-background:new 0 0 640 480;" xml:space="preserve">
<style type="text/css">
	.st0{fill:#071E31;}
	.st1{fill:#FFFFFF;}
	.st2{fill:#09283D;}
	.st3{fill:#303030;}
	.st4{fill:#222127;}
	.st5{fill:#35343D;}
	.st6{clip-path:url(#SVGID_2_);}
	.st7{clip-path:url(#SVGID_2_);fill:#010001;}
	.st8{clip-path:url(#SVGID_2_);fill:#020102;}
	.st9{clip-path:url(#SVGID_2_);fill:#030103;}
	.st10{clip-path:url(#SVGID_2_);fill:#030104;}
	.st11{clip-path:url(#SVGID_2_);fill:#040105;}
	.st12{clip-path:url(#SVGID_2_);fill:#050206;}
	.st13{clip-path:url(#SVGID_2_);fill:#060207;}
	.st14{clip-path:url(#SVGID_2_);fill:#070208;}
	.st15{clip-path:url(#SVGID_2_);fill:#080309;}
	.st16{clip-path:url(#SVGID_2_);fill:#08030A;}
	.st17{clip-path:url(#SVGID_2_);fill:#09030B;}
	.st18{clip-path:url(#SVGID_2_);fill:#0A030C;}
	.st19{clip-path:url(#SVGID_2_);fill:#0B040D;}
	.st20{clip-path:url(#SVGID_2_);fill:#0C040E;}
	.st21{clip-path:url(#SVGID_2_);fill:#0C040F;}
	.st22{clip-path:url(#SVGID_2_);fill:#0D0410;}
	.st23{clip-path:url(#SVGID_2_);fill:#0E0511;}
	.st24{clip-path:url(#SVGID_2_);fill:#0F0513;}
	.st25{clip-path:url(#SVGID_2_);fill:#100514;}
	.st26{clip-path:url(#SVGID_2_);fill:#110615;}
	.st27{clip-path:url(#SVGID_2_);fill:#110616;}
	.st28{clip-path:url(#SVGID_2_);fill:#120617;}
	.st29{clip-path:url(#SVGID_2_);fill:#130618;}
	.st30{clip-path:url(#SVGID_2_);fill:#140719;}
	.st31{clip-path:url(#SVGID_2_);fill:#15071A;}
	.st32{clip-path:url(#SVGID_2_);fill:#16071B;}
	.st33{clip-path:url(#SVGID_2_);fill:#17081C;}
	.st34{clip-path:url(#SVGID_2_);fill:#17081D;}
	.st35{clip-path:url(#SVGID_2_);fill:#18081E;}
	.st36{clip-path:url(#SVGID_2_);fill:#19081F;}
	.st37{clip-path:url(#SVGID_2_);fill:#1A0920;}
	.st38{clip-path:url(#SVGID_2_);fill:#1B0921;}
	.st39{clip-path:url(#SVGID_2_);fill:#1C0922;}
	.st40{clip-path:url(#SVGID_2_);fill:#1C0923;}
	.st41{clip-path:url(#SVGID_2_);fill:#1D0A24;}
	.st42{clip-path:url(#SVGID_2_);fill:#1E0A25;}
	.st43{clip-path:url(#SVGID_2_);fill:#1F0A26;}
	.st44{clip-path:url(#SVGID_2_);fill:#200B27;}
	.st45{clip-path:url(#SVGID_2_);fill:#210B28;}
	.st46{clip-path:url(#SVGID_2_);fill:#220B29;}
	.st47{clip-path:url(#SVGID_2_);fill:#230B2A;}
	.st48{clip-path:url(#SVGID_2_);fill:#240C2A;}
	.st49{clip-path:url(#SVGID_2_);fill:#250C2B;}
	.st50{clip-path:url(#SVGID_2_);fill:#260C2C;}
	.st51{clip-path:url(#SVGID_2_);fill:#270C2D;}
	.st52{clip-path:url(#SVGID_2_);fill:#280D2E;}
	.st53{clip-path:url(#SVGID_2_);fill:#290D2F;}
	.st54{clip-path:url(#SVGID_2_);fill:#2A0D30;}
	.st55{clip-path:url(#SVGID_2_);fill:#2B0D31;}
	.st56{clip-path:url(#SVGID_2_);fill:#2C0E32;}
	.st57{clip-path:url(#SVGID_2_);fill:#2E0E33;}
	.st58{clip-path:url(#SVGID_2_);fill:#2F0E33;}
	.st59{clip-path:url(#SVGID_2_);fill:#300F34;}
	.st60{clip-path:url(#SVGID_2_);fill:#310F35;}
	.st61{clip-path:url(#SVGID_2_);fill:#320F36;}
	.st62{clip-path:url(#SVGID_2_);fill:#330F37;}
	.st63{clip-path:url(#SVGID_2_);fill:#341038;}
	.st64{clip-path:url(#SVGID_2_);fill:#351039;}
	.st65{clip-path:url(#SVGID_2_);fill:#36103A;}
	.st66{clip-path:url(#SVGID_2_);fill:#37103B;}
	.st67{clip-path:url(#SVGID_2_);fill:#38113C;}
	.st68{clip-path:url(#SVGID_2_);fill:#39113C;}
	.st69{clip-path:url(#SVGID_2_);fill:#3A113D;}
	.st70{clip-path:url(#SVGID_2_);fill:#3B113E;}
	.st71{clip-path:url(#SVGID_2_);fill:#3C123F;}
	.st72{clip-path:url(#SVGID_2_);fill:#3D1240;}
	.st73{filter:url(#Adobe_OpacityMaskFilter);}
	.st74{enable-background:new    ;}
	.st75{clip-path:url(#SVGID_5_);fill:url(#SVGID_6_);}
	.st76{mask:url(#SVGID_3_);}
	.st77{clip-path:url(#SVGID_8_);fill:#872583;}
	.st78{filter:url(#Adobe_OpacityMaskFilter_1_);}
	.st79{clip-path:url(#SVGID_11_);fill:url(#SVGID_12_);}
	.st80{mask:url(#SVGID_9_);}
	.st81{clip-path:url(#SVGID_14_);fill:#872583;}
	.st82{filter:url(#Adobe_OpacityMaskFilter_2_);}
	.st83{clip-path:url(#SVGID_17_);fill:url(#SVGID_18_);}
	.st84{mask:url(#SVGID_15_);}
	.st85{clip-path:url(#SVGID_20_);fill:#FFB3FC;}
	.st86{fill:#9D9D9C;}
	.st87{opacity:0.33;}
	.st88{clip-path:url(#SVGID_22_);fill:#FFFFFF;}
	.st89{fill:#555A5F;}
	.st90{fill:none;stroke:#96A0A5;stroke-width:0.782;stroke-miterlimit:10;}
	.st91{fill:#788287;}
	.st92{fill:#96A0A5;}
	.st93{fill:none;stroke:#BFD4E2;stroke-width:0.123;stroke-miterlimit:10;}
	.st94{fill:none;stroke:#BEC8D2;stroke-width:1.023;stroke-miterlimit:10;}
	.st95{fill:#40A5CE;}
	.st96{fill:#0C3352;}
	.st97{clip-path:url(#SVGID_24_);fill:#FFFFFF;}
	.st98{fill:#F0C32D;}
	.st99{clip-path:url(#SVGID_26_);fill:#FFFFFF;}
	.st100{clip-path:url(#SVGID_28_);fill:#FFFFFF;}
	.st101{fill:#B7B7B7;}
	.st102{fill:#CFD9E2;}
	.st103{fill:#E11E19;}
	.st104{fill:#223A3F;}
	.st105{fill:#BEC8D2;}
	.st106{clip-path:url(#SVGID_30_);fill:#FFFFFF;}
</style>
<path class="st0" d="M346,350.1H156.3c-8.7,0-15.7-7-15.7-15.7V60.9c0-8.7,7-15.7,15.7-15.7H346c8.7,0,15.7,7,15.7,15.7v273.5
	C361.7,343,354.7,350.1,346,350.1"/>
<rect x="148.5" y="69.8" class="st1" width="205.4" height="251.1"/>
<path class="st2" d="M275.6,335c0,2.2-1.8,4-4,4h-40.8c-2.2,0-4-1.8-4-4c0-2.2,1.8-4,4-4h40.8C273.8,331,275.6,332.8,275.6,335"/>
<path class="st3" d="M274,58.5c0,0.7-0.6,1.3-1.3,1.3h-36.4c-0.7,0-1.3-0.6-1.3-1.3c0-0.7,0.6-1.3,1.3-1.3h36.4
	C273.4,57.2,274,57.8,274,58.5"/>
<path class="st3" d="M231.8,58.5c0,0.9-0.8,1.7-1.7,1.7c-0.9,0-1.7-0.8-1.7-1.7c0-0.9,0.8-1.7,1.7-1.7
	C231,56.8,231.8,57.5,231.8,58.5"/>
<path d="M232.5,58.5c0,1.4-1.1,2.6-2.6,2.6c-1.4,0-2.6-1.1-2.6-2.6c0-1.4,1.1-2.6,2.6-2.6C231.3,56,232.5,57.1,232.5,58.5"/>
<path class="st4" d="M232.2,58.5c0,1.3-1,2.3-2.3,2.3s-2.3-1-2.3-2.3c0-1.3,1-2.3,2.3-2.3S232.2,57.2,232.2,58.5"/>
<path class="st5" d="M231.4,58.5c0,0.8-0.7,1.5-1.5,1.5c-0.8,0-1.5-0.7-1.5-1.5c0-0.8,0.7-1.5,1.5-1.5
	C230.7,57,231.4,57.7,231.4,58.5"/>
<g>
	<defs>
		<path id="SVGID_1_" d="M228.5,58.5c0,0.8,0.6,1.4,1.4,1.4c0.8,0,1.4-0.6,1.4-1.4c0-0.8-0.6-1.4-1.4-1.4
			C229.1,57.1,228.5,57.8,228.5,58.5"/>
	</defs>
	<clipPath id="SVGID_2_">
		<use xlink:href="#SVGID_1_"  style="overflow:visible;"/>
	</clipPath>
	<rect x="228.5" y="57.1" class="st6" width="2.8" height="0"/>
	<rect x="228.5" y="57.2" class="st6" width="2.8" height="0"/>
	<rect x="228.5" y="57.2" class="st7" width="2.8" height="0"/>
	<rect x="228.5" y="57.3" class="st8" width="2.8" height="0"/>
	<rect x="228.5" y="57.3" class="st9" width="2.8" height="0"/>
	<rect x="228.5" y="57.3" class="st10" width="2.8" height="0"/>
	<rect x="228.5" y="57.4" class="st11" width="2.8" height="0"/>
	<rect x="228.5" y="57.4" class="st12" width="2.8" height="0"/>
	<rect x="228.5" y="57.4" class="st13" width="2.8" height="0"/>
	<rect x="228.5" y="57.5" class="st14" width="2.8" height="0"/>
	<rect x="228.5" y="57.5" class="st15" width="2.8" height="0"/>
	<rect x="228.5" y="57.5" class="st16" width="2.8" height="0"/>
	<rect x="228.5" y="57.5" class="st17" width="2.8" height="0"/>
	<rect x="228.5" y="57.6" class="st18" width="2.8" height="0"/>
	<rect x="228.5" y="57.6" class="st19" width="2.8" height="0"/>
	<rect x="228.5" y="57.6" class="st20" width="2.8" height="0"/>
	<rect x="228.5" y="57.7" class="st21" width="2.8" height="0"/>
	<rect x="228.5" y="57.7" class="st22" width="2.8" height="0"/>
	<rect x="228.5" y="57.7" class="st23" width="2.8" height="0"/>
	<rect x="228.5" y="57.8" class="st24" width="2.8" height="0"/>
	<rect x="228.5" y="57.8" class="st25" width="2.8" height="0"/>
	<rect x="228.5" y="57.8" class="st26" width="2.8" height="0"/>
	<rect x="228.5" y="57.9" class="st27" width="2.8" height="0"/>
	<rect x="228.5" y="57.9" class="st28" width="2.8" height="0"/>
	<rect x="228.5" y="57.9" class="st29" width="2.8" height="0"/>
	<rect x="228.5" y="58" class="st30" width="2.8" height="0"/>
	<rect x="228.5" y="58" class="st31" width="2.8" height="0"/>
	<rect x="228.5" y="58" class="st32" width="2.8" height="0"/>
	<rect x="228.5" y="58.1" class="st33" width="2.8" height="0"/>
	<rect x="228.5" y="58.1" class="st34" width="2.8" height="0"/>
	<rect x="228.5" y="58.1" class="st35" width="2.8" height="0"/>
	<rect x="228.5" y="58.2" class="st36" width="2.8" height="0"/>
	<rect x="228.5" y="58.2" class="st37" width="2.8" height="0"/>
	<rect x="228.5" y="58.2" class="st38" width="2.8" height="0"/>
	<rect x="228.5" y="58.3" class="st39" width="2.8" height="0"/>
	<rect x="228.5" y="58.3" class="st40" width="2.8" height="0"/>
	<rect x="228.5" y="58.3" class="st41" width="2.8" height="0"/>
	<rect x="228.5" y="58.4" class="st42" width="2.8" height="0"/>
	<rect x="228.5" y="58.4" class="st42" width="2.8" height="0"/>
	<rect x="228.5" y="58.5" class="st43" width="2.8" height="0"/>
	<rect x="228.5" y="58.5" class="st44" width="2.8" height="0"/>
	<rect x="228.5" y="58.5" class="st45" width="2.8" height="0"/>
	<rect x="228.5" y="58.6" class="st46" width="2.8" height="0"/>
	<rect x="228.5" y="58.6" class="st47" width="2.8" height="0"/>
	<rect x="228.5" y="58.7" class="st48" width="2.8" height="0"/>
	<rect x="228.5" y="58.7" class="st49" width="2.8" height="0"/>
	<rect x="228.5" y="58.8" class="st50" width="2.8" height="0"/>
	<rect x="228.5" y="58.8" class="st51" width="2.8" height="0"/>
	<rect x="228.5" y="58.9" class="st52" width="2.8" height="0"/>
	<rect x="228.5" y="58.9" class="st53" width="2.8" height="0"/>
	<rect x="228.5" y="59" class="st54" width="2.8" height="0"/>
	<rect x="228.5" y="59" class="st55" width="2.8" height="0"/>
	<rect x="228.5" y="59.1" class="st56" width="2.8" height="0"/>
	<rect x="228.5" y="59.1" class="st57" width="2.8" height="0"/>
	<rect x="228.5" y="59.2" class="st58" width="2.8" height="0"/>
	<rect x="228.5" y="59.2" class="st59" width="2.8" height="0"/>
	<rect x="228.5" y="59.3" class="st60" width="2.8" height="0"/>
	<rect x="228.5" y="59.3" class="st61" width="2.8" height="0"/>
	<rect x="228.5" y="59.4" class="st62" width="2.8" height="0"/>
	<rect x="228.5" y="59.4" class="st63" width="2.8" height="0"/>
	<rect x="228.5" y="59.4" class="st64" width="2.8" height="0"/>
	<rect x="228.5" y="59.5" class="st65" width="2.8" height="0"/>
	<rect x="228.5" y="59.5" class="st66" width="2.8" height="0"/>
	<rect x="228.5" y="59.6" class="st67" width="2.8" height="0"/>
	<rect x="228.5" y="59.6" class="st68" width="2.8" height="0"/>
	<rect x="228.5" y="59.7" class="st69" width="2.8" height="0"/>
	<rect x="228.5" y="59.7" class="st70" width="2.8" height="0"/>
	<rect x="228.5" y="59.8" class="st71" width="2.8" height="0"/>
	<rect x="228.5" y="59.8" class="st72" width="2.8" height="0"/>
	<rect x="228.5" y="59.9" class="st72" width="2.8" height="0"/>
</g>
<defs>
	<filter id="Adobe_OpacityMaskFilter" filterUnits="userSpaceOnUse" x="228.7" y="57.7" width="1.1" height="1.6">
		<feColorMatrix  type="matrix" values="1 0 0 0 0  0 1 0 0 0  0 0 1 0 0  0 0 0 1 0"/>
	</filter>
</defs>
<mask maskUnits="userSpaceOnUse" x="228.7" y="57.7" width="1.1" height="1.6" id="SVGID_3_">
	<g class="st73">
		<rect x="228.7" y="57.7" width="1.1" height="1.6"/>
		<g class="st74">
			<g>
				<defs>
					<path id="SVGID_4_" d="M229.7,58.5c0,0.4-0.2,0.8-0.5,0.8c-0.3,0-0.5-0.4-0.5-0.8c0-0.4,0.2-0.8,0.5-0.8
						C229.5,57.7,229.7,58.1,229.7,58.5"/>
				</defs>
				<clipPath id="SVGID_5_">
					<use xlink:href="#SVGID_4_"  style="overflow:visible;"/>
				</clipPath>
				
					<linearGradient id="SVGID_6_" gradientUnits="userSpaceOnUse" x1="-1317.3866" y1="1710.0132" x2="-1315.0712" y2="1710.0132" gradientTransform="matrix(0.4886 8.497650e-02 8.497650e-02 -0.4886 727.0197 1005.9071)">
					<stop  offset="0" style="stop-color:#FFFFFF"/>
					<stop  offset="1" style="stop-color:#000000"/>
				</linearGradient>
				<polygon class="st75" points="228.7,57.5 230,57.8 229.7,59.5 228.4,59.3 				"/>
			</g>
		</g>
	</g>
</mask>
<g class="st76">
	<g>
		<defs>
			<rect id="SVGID_7_" x="228.7" y="57.7" width="1.1" height="1.6"/>
		</defs>
		<clipPath id="SVGID_8_">
			<use xlink:href="#SVGID_7_"  style="overflow:visible;"/>
		</clipPath>
		<path class="st77" d="M229.7,58.5c0,0.4-0.2,0.8-0.5,0.8c-0.3,0-0.5-0.4-0.5-0.8c0-0.4,0.2-0.8,0.5-0.8
			C229.5,57.7,229.7,58.1,229.7,58.5"/>
	</g>
</g>
<defs>
	<filter id="Adobe_OpacityMaskFilter_1_" filterUnits="userSpaceOnUse" x="230.4" y="57.9" width="0.8" height="1.2">
		<feColorMatrix  type="matrix" values="1 0 0 0 0  0 1 0 0 0  0 0 1 0 0  0 0 0 1 0"/>
	</filter>
</defs>
<mask maskUnits="userSpaceOnUse" x="230.4" y="57.9" width="0.8" height="1.2" id="SVGID_9_">
	<g class="st78">
		<rect x="230.4" y="57.9" width="0.8" height="1.2"/>
		<g class="st74">
			<g>
				<defs>
					<path id="SVGID_10_" d="M230.4,58.5c0-0.3,0.2-0.6,0.4-0.6c0.2,0,0.4,0.3,0.4,0.6c0,0.3-0.2,0.6-0.4,0.6
						C230.5,59.1,230.4,58.8,230.4,58.5"/>
				</defs>
				<clipPath id="SVGID_11_">
					<use xlink:href="#SVGID_10_"  style="overflow:visible;"/>
				</clipPath>
				
					<linearGradient id="SVGID_12_" gradientUnits="userSpaceOnUse" x1="846.9818" y1="3534.6094" x2="849.2971" y2="3534.6094" gradientTransform="matrix(-0.359 -6.243710e-02 -6.243710e-02 0.359 755.9384 -1157.4987)">
					<stop  offset="0" style="stop-color:#000000"/>
					<stop  offset="1" style="stop-color:#FFFFFF"/>
				</linearGradient>
				<polygon class="st79" points="231.1,59.2 230.2,59.1 230.4,57.8 231.4,58 				"/>
			</g>
		</g>
	</g>
</mask>
<g class="st80">
	<g>
		<defs>
			<rect id="SVGID_13_" x="230.4" y="57.9" width="0.8" height="1.2"/>
		</defs>
		<clipPath id="SVGID_14_">
			<use xlink:href="#SVGID_13_"  style="overflow:visible;"/>
		</clipPath>
		<path class="st81" d="M230.4,58.5c0-0.3,0.2-0.6,0.4-0.6c0.2,0,0.4,0.3,0.4,0.6c0,0.3-0.2,0.6-0.4,0.6
			C230.5,59.1,230.4,58.8,230.4,58.5"/>
	</g>
</g>
<defs>
	<filter id="Adobe_OpacityMaskFilter_2_" filterUnits="userSpaceOnUse" x="228.7" y="58" width="0.5" height="0.8">
		<feColorMatrix  type="matrix" values="1 0 0 0 0  0 1 0 0 0  0 0 1 0 0  0 0 0 1 0"/>
	</filter>
</defs>
<mask maskUnits="userSpaceOnUse" x="228.7" y="58" width="0.5" height="0.8" id="SVGID_15_">
	<g class="st82">
		<rect x="228.7" y="58" width="0.5" height="0.8"/>
		<g class="st74">
			<g>
				<defs>
					<path id="SVGID_16_" d="M228.7,58.4c0-0.2,0.1-0.4,0.3-0.4c0.1,0,0.3,0.2,0.3,0.4c0,0.2-0.1,0.4-0.3,0.4
						C228.8,58.8,228.7,58.6,228.7,58.4"/>
				</defs>
				<clipPath id="SVGID_17_">
					<use xlink:href="#SVGID_16_"  style="overflow:visible;"/>
				</clipPath>
				
					<linearGradient id="SVGID_18_" gradientUnits="userSpaceOnUse" x1="1476.1719" y1="4062.3716" x2="1478.4872" y2="4062.3716" gradientTransform="matrix(-0.2391 -4.158570e-02 -4.158570e-02 0.2391 751.1794 -851.5309)">
					<stop  offset="0" style="stop-color:#000000"/>
					<stop  offset="1" style="stop-color:#FFFFFF"/>
				</linearGradient>
				<polygon class="st83" points="229.2,58.9 228.6,58.8 228.7,57.9 229.4,58 				"/>
			</g>
		</g>
	</g>
</mask>
<g class="st84">
	<g>
		<defs>
			<rect id="SVGID_19_" x="228.7" y="58" width="0.5" height="0.8"/>
		</defs>
		<clipPath id="SVGID_20_">
			<use xlink:href="#SVGID_19_"  style="overflow:visible;"/>
		</clipPath>
		<path class="st85" d="M228.7,58.4c0-0.2,0.1-0.4,0.3-0.4c0.1,0,0.3,0.2,0.3,0.4c0,0.2-0.1,0.4-0.3,0.4
			C228.8,58.8,228.7,58.6,228.7,58.4"/>
	</g>
</g>
<path d="M230.2,58.5c0,0.1-0.1,0.2-0.2,0.2c-0.1,0-0.2-0.1-0.2-0.2c0-0.1,0.1-0.2,0.2-0.2C230.1,58.2,230.2,58.3,230.2,58.5"/>
<path class="st86" d="M208.9,332.8h-6.1v3.6h6.1V332.8z M203.7,333.5h4.4v2h-4.4V333.5z"/>
<path class="st86" d="M208.9,335.4h-0.8v0.2h-4.4v-2h0.1v-0.8h-0.9v3.6h6.1V335.4z M208.9,332.8h-4.3v0.8h3.5v1h0.8V332.8z"/>
<polygon class="st86" points="210.1,331.5 204,331.5 204,332.5 204.8,332.5 204.8,332.3 209.3,332.3 209.3,334.3 209.1,334.3 
	209.1,335.1 210.1,335.1 "/>
<polygon class="st86" points="296.4,331.1 293.1,332.3 296.4,333.5 "/>
<path class="st86" d="M298.6,331.9h-4.1v0.8h4.1c0.9,0,1.7,0.7,1.7,1.7c0,0.9-0.7,1.7-1.7,1.7h-4.1v0.8h4.1c1.3,0,2.4-1.1,2.4-2.4
	C301.1,333,300,331.9,298.6,331.9"/>
<g class="st87">
	<g>
		<defs>
			<rect id="SVGID_21_" x="140.5" y="45.7" width="210.6" height="275.4"/>
		</defs>
		<clipPath id="SVGID_22_">
			<use xlink:href="#SVGID_21_"  style="overflow:visible;"/>
		</clipPath>
		<path class="st88" d="M156.9,45.7c-9.1,0-16.4,7.8-16.4,17.3V321h45.1L351.1,45.7H156.9z"/>
	</g>
</g>
<path class="st89" d="M295,181.5l-1.1,0c-0.4,0-0.7-0.3-0.7-0.6l-0.4-12.8c0-0.4,0.3-0.7,0.6-0.7l1.1,0c0.4,0,0.7,0.3,0.7,0.6
	l0.4,12.8C295.6,181.2,295.4,181.5,295,181.5"/>
<path class="st89" d="M295.7,207.2l-1.1,0c-0.4,0-0.7-0.3-0.7-0.6l-0.6-19.4c0-0.4,0.3-0.7,0.6-0.7l1.1,0c0.4,0,0.7,0.3,0.7,0.6
	l0.6,19.4C296.4,206.8,296.1,207.1,295.7,207.2"/>
<path class="st89" d="M296.5,231.9l-1.1,0c-0.4,0-0.7-0.3-0.7-0.6l-0.6-19.4c0-0.4,0.3-0.7,0.6-0.7l1.1,0c0.4,0,0.7,0.3,0.7,0.6
	l0.6,19.4C297.1,231.6,296.8,231.9,296.5,231.9"/>
<path class="st89" d="M405.4,223.6l-1.1,0c-0.4,0-0.7-0.3-0.7-0.6l-1-33.9c0-0.4,0.3-0.7,0.6-0.7l1.1,0c0.4,0,0.7,0.3,0.7,0.6
	l1,33.9C406,223.2,405.7,223.5,405.4,223.6"/>
<path class="st90" d="M387,122l-79,2.3c-8.1,0.2-14.5,7-14.2,15.1l5.6,194.1c0.2,8.1,7,14.5,15.1,14.2l79-2.3
	c8.1-0.2,14.5-7,14.2-15.1L402,136.2C401.8,128.1,395.1,121.8,387,122z"/>
<path class="st0" d="M387.3,121.9l-79.3,2.3c-8.1,0.2-14.5,7-14.3,15.1l5.6,194.3c0.2,8.1,7,14.5,15.1,14.2l79.3-2.3
	c8.1-0.2,14.5-7,14.3-15.1l-5.6-194.3C402.2,128,395.5,121.6,387.3,121.9"/>
<path class="st1" d="M393.3,341.7l-79.3,2.3c-6.7,0.2-12.4-5.1-12.6-11.9l-5.6-192.7c-0.2-6.7,5.1-12.4,11.9-12.6l79.3-2.3
	c6.7-0.2,12.4,5.1,12.6,11.9l5.6,192.7C405.3,335.9,400,341.5,393.3,341.7"/>
<path class="st0" d="M374.5,124.5l0.1,3.1c0.1,2.2-1.7,4-3.9,4.1l-46.2,1.3c-2.2,0.1-4-1.7-4.1-3.9l-0.1-3.1"/>
<line class="st91" x1="337.8" y1="128.2" x2="356.3" y2="127.6"/>
<path class="st91" d="M356.3,128.1l-18.5,0.5c-0.3,0-0.5-0.2-0.5-0.5c0-0.3,0.2-0.5,0.5-0.5l18.5-0.5c0.3,0,0.5,0.2,0.5,0.5
	C356.8,127.9,356.6,128.1,356.3,128.1"/>
<path class="st92" d="M362,127.5c0,0.8-0.6,1.5-1.5,1.5c-0.8,0-1.5-0.6-1.5-1.5c0-0.8,0.6-1.5,1.5-1.5
	C361.3,126,362,126.6,362,127.5"/>
<path class="st93" d="M362,127.5c0,0.8-0.6,1.5-1.5,1.5c-0.8,0-1.5-0.6-1.5-1.5c0-0.8,0.6-1.5,1.5-1.5
	C361.3,126,362,126.6,362,127.5z"/>
<path class="st92" d="M360.6,129.2c-0.9,0-1.7-0.7-1.8-1.7c0-1,0.7-1.7,1.7-1.8c0.9,0,1.7,0.7,1.8,1.7
	C362.3,128.4,361.5,129.2,360.6,129.2 M360.5,126.2c-0.7,0-1.3,0.6-1.2,1.3c0,0.7,0.6,1.3,1.3,1.2c0.7,0,1.3-0.6,1.2-1.3
	C361.8,126.8,361.2,126.2,360.5,126.2"/>
<path class="st93" d="M360.6,129.2c-0.9,0-1.7-0.7-1.8-1.7c0-1,0.7-1.7,1.7-1.8c0.9,0,1.7,0.7,1.8,1.7
	C362.3,128.4,361.5,129.2,360.6,129.2z M360.5,126.2c-0.7,0-1.3,0.6-1.2,1.3c0,0.7,0.6,1.3,1.3,1.2c0.7,0,1.3-0.6,1.2-1.3
	C361.8,126.8,361.2,126.2,360.5,126.2z"/>
<rect x="349.3" y="116.3" transform="matrix(0.1535 -0.9881 0.9881 0.1535 181.093 655.5949)" class="st1" width="247.7" height="211.6"/>
<rect x="349.3" y="116.3" transform="matrix(0.1535 -0.9881 0.9881 0.1535 181.093 655.5949)" class="st94" width="247.7" height="211.6"/>
<rect x="408.3" y="101.6" transform="matrix(0.1535 -0.9881 0.9881 0.1535 215.9229 636.1666)" class="st95" width="142" height="180.9"/>
<path class="st96" d="M418.4,198.9c-1.2-0.2-2.4-0.6-3.1-1.4c-0.7-0.7-1.1-1.6-1.1-2.8c-1.6,0.7-3.1,0.9-4.3,0.6
	c-0.7-0.2-1.4-0.6-1.8-1.2c-3.4,1.7-11.9,2.9-14.2-0.5c-0.9-1.4-0.9-2.9,0-4.1c1.4-1.9,4.5-2.8,7-2.2l0.5,0.1l0,0.5
	c0.1,0.5,0,0.9-0.1,1.3c-0.1,0.3-0.1,0.6-0.1,0.8c0,0.4-0.3,0.8-0.7,0.8c-0.4,0-0.8-0.3-0.8-0.7c0-0.4,0.1-0.8,0.1-1.2
	c0-0.1,0-0.2,0.1-0.4c-1.8-0.3-3.9,0.5-4.9,1.7c-0.5,0.7-0.5,1.6,0,2.4c1.9,2.8,10.4,1.3,12.8-0.3l0.7-0.4l0.4,0.7
	c0.3,0.5,0.7,0.9,1.3,1.1c1.1,0.3,2.7-0.1,4.3-1l1.3-0.8l-0.2,1.6c-0.2,1.3,0,2.2,0.6,2.9c1.6,1.6,5.8,1.1,8.5,0.7l0.4-0.1
	c15.3-2,36.4-13.6,42-27.2c3-7.3,2.6-12.8-1.2-16.3c-6.7-6.1-22.9-4.9-32.9,0.3c-8.2,4.3-21.7,12.9-19.2,22c1.9,6.8,11.3,7.7,16.6,7
	c0.4,0,0.8,0.2,0.8,0.7c0,0.4-0.2,0.8-0.7,0.8c-7.7,0.9-16.3-1.3-18.2-8.1c-2.8-10.1,11.3-19.2,20-23.7c10.5-5.4,27.2-6.8,34.6-0.1
	c3,2.7,5.7,8.1,1.6,18c-5.9,14-27.5,26.1-43.2,28.1l-0.4,0.1C423,198.9,420.5,199.2,418.4,198.9 M463,233.4c0.6-0.6,1.2-1.2,1.7-1.7
	c5-4.7,10-9.6,14.7-14.4c1.4-1.5,2.9-2.9,4.3-4.4c6.6-2.9,14-5.1,19.8-3.8c0,0.2,0,0.3,0,0.6l0.1,0.5l0.5,0.1
	c2.1,0.6,4.2-0.1,6.3-0.7c1.7-0.5,3.5-1.1,5.3-0.9c0.6,0.1,1.4,0.3,2.2,0.5c2,0.6,4.5,1.3,6.3,0.2c1.3,0.7,3.3-0.2,5.1-1
	c0.3-0.1,0.6-0.3,0.8-0.4c0.2,1,0.8,1.9,1.8,2.5c-0.9,0.7-1.6,1.4-1.9,2.1l-0.3,0.6l0.6,0.3c4.6,2.5,10.7,2.1,16.6,1.6
	c4-0.3,7.8-0.6,11,0c0.3,0.1,0.8-0.2,0.9-0.6c0.1-0.4-0.2-0.8-0.6-0.9c-3.4-0.6-7.5-0.3-11.4-0.1c-5.4,0.4-10.9,0.8-15.1-1.1
	c0.4-0.5,1-0.9,1.7-1.4c4.1,1.2,11.2,0.1,13.1-2.2l0.4-0.4l-0.3-0.5c-0.8-1.2-2.5-1.7-4.7-1.5c-2.8,0.2-6.1,1.5-8.6,3c0,0,0,0-0.1,0
	c-1.9-0.8-1.8-2.1-1.7-2.5l0.1-1l-1,0.2c-0.5,0.1-1.2,0.4-2,0.8c-1,0.4-2.5,1.1-3.4,1.1c0-0.1,0.1-0.1,0.1-0.2l0.7-1.3l-1.4,0.2
	c-0.2,0-0.7-0.1-0.7-0.1l-1.2-0.5l0.1,1.3c0,0.3,0.1,0.5,0.1,0.7c-1.1,0.6-2.8,0.2-4.9-0.4c-0.9-0.3-1.7-0.5-2.4-0.6
	c-2-0.3-4,0.3-5.9,0.9c-1.7,0.5-3.3,1-4.8,0.8c0-0.2,0-0.3,0-0.5l-0.1-0.5l-0.5-0.1c-5.4-1.5-11.9-0.1-18.1,2.3
	c0.6-0.6,1.2-1.2,1.9-1.8c2.4-2.3,4.8-4.7,7.2-7c2.1-1.1,4-2.2,5.7-3.2c11-6.4,20-14.8,25.9-24.1l1.1-1.7l-2,0.6
	c-3.8,1.2-7.1,4.3-10.1,7.1c-0.7,0.7-1.4,1.3-2.1,1.9c-6.7,5.9-13.2,12-19.5,18.2c-5.5,2.8-11.9,5-18.2,3.3
	c-0.2-0.1-0.5-0.1-0.8-0.2c-0.7-0.2-1.8-0.4-2.2-0.8c0-0.2,0.1-0.4,0.2-0.6c0.2-0.6,0.5-1.3,0-1.9c-1.5-1.7-3.1-1.7-5-1.2
	c0-0.3,0-0.5,0-0.7c-0.4-1.8-3.3-2.8-5.2-2.9c-3.1-0.2-6.7,0.3-10.1,1.2c-0.2-0.3-0.7-0.4-1-0.2c-0.5,0.4-1.1,0.7-1.6,1
	c-3,1.1-5.8,2.5-7.8,4.2l0.8,1.2c1.1-0.6,2.3-1.2,3.5-1.8c1.4-0.7,2.8-1.4,4.2-2.3c3.9-1.4,8.3-2.1,12-1.9c1.9,0.1,3.7,1.1,3.8,1.8
	c0.1,0.4-0.5,0.9-1.4,1.4l0.6,1.4l1-0.3c2.7-1,3.9-1.3,5.1,0c0,0.2-0.1,0.4-0.2,0.5c-0.2,0.6-0.5,1.4,0,2c0.7,0.8,2,1.1,3.1,1.4
	c0.3,0.1,0.5,0.1,0.7,0.2c5.3,1.5,10.6,0.4,15.4-1.6c-1.4,1.4-2.8,2.7-4.2,4.1c-1.5,1.4-3,2.9-4.4,4.4c-3.3,1.5-6.5,3.1-9.2,4.4
	l-3.6,1.8c-8.3,4.1-20.8,10.3-19.4,21.2l0.1,0.5l0.5,0.1c0.2,0,0.4,0.1,0.5,0.1C456,240.5,460,236.4,463,233.4 M478.4,216.3
	c-4.8,4.8-9.7,9.7-14.7,14.4c-0.5,0.5-1.1,1.1-1.7,1.7c-2.8,2.8-6.5,6.6-9.8,6.1c-0.8-9.5,10.9-15.3,18.6-19.2l3.6-1.8
	c1.7-0.9,3.5-1.8,5.5-2.7C479.4,215.2,478.9,215.7,478.4,216.3 M544.9,208.7c-1.8,1.3-6.2,2.1-9.6,1.6c2.1-1,4.5-1.9,6.7-2.1
	c0.5,0,1.1-0.1,1.7,0C544.2,208.3,544.6,208.4,544.9,208.7 M500.6,196.9c-0.3,0.2-0.6,0.3-0.9,0.5c5.1-4.8,10.2-9.7,15.5-14.3
	c0.7-0.6,1.4-1.3,2.1-2c2.2-2.1,4.6-4.3,7.3-5.7C518.8,183.7,510.6,191.1,500.6,196.9"/>
<g class="st87">
	<g>
		<defs>
			<rect id="SVGID_23_" x="376.5" y="109.9" width="138.1" height="152.6"/>
		</defs>
		<clipPath id="SVGID_24_">
			<use xlink:href="#SVGID_23_"  style="overflow:visible;"/>
		</clipPath>
		<path class="st97" d="M408.7,110c-4.9-0.8-9.6,2.8-10.4,8l-21.8,140.6l24.6,3.8l113.5-136L408.7,110z"/>
	</g>
</g>
<path class="st98" d="M623.5,385.3c0,28.1-22.8,50.9-50.9,50.9c-28.1,0-50.9-22.8-50.9-50.9c0-28.1,22.8-50.9,50.9-50.9
	C600.7,334.4,623.5,357.2,623.5,385.3"/>
<g>
	<g>
		<defs>
			<rect id="SVGID_25_" x="533" y="341.8" width="74.2" height="73.5"/>
		</defs>
		<clipPath id="SVGID_26_">
			<use xlink:href="#SVGID_25_"  style="overflow:visible;"/>
		</clipPath>
		<path class="st99" d="M606.6,415l-73.5,0.2l0-7.4l73.5-0.2L606.6,415 M548.5,397.9l-2.6,2.6l-5.2-5.1l-5.1,5.2L533,398l5.1-5.2
			l-5.2-5.1l2.6-2.6l5.2,5.1l5.1-5.2l2.6,2.6l-5.1,5.2L548.5,397.9 M566.8,384.6c-1.1,2.9-4,13.6-7.7,15.5c-2.9,1.5-5.9-1.8-5.2-4.8
			c2.2-10.3,12.4-24.3,14.6-30.9c6.6-14,5.8-21.3,10.2-22.5c4-1.1,7.7,2.9,2.6,7.7c4.1,18,4.5,17.3,10.8,36
			c8.2,20.9,9.2,2.5,14.4,7.3c2.9,2.9-3.6,16.2-13.6,6.7c-2.6-2.2-4.4-7-4.8-7.7c-2.2-4.4-2.6-6.6-3-8.4c-2.9,0-11,2.6-14,4.1
			C567.9,388.7,565.3,387.9,566.8,384.6 M582.9,375c-0.4-1.5-1.9-7.3-4.5-16.9c-0.4-0.7-0.4-1.5-0.4-1.8l-8.4,22.1
			c1.1-0.4,2.6-0.7,3.7-0.7c0.7,0,2.9-0.7,6.6-1.9C581.1,375.4,581.8,375.4,582.9,375"/>
	</g>
</g>
<path class="st98" d="M636,120.9c0,28.8-23.3,52.1-52.1,52.1c-28.8,0-52.1-23.3-52.1-52.1c0-28.8,23.3-52.1,52.1-52.1
	C612.7,68.8,636,92.1,636,120.9"/>
<g>
	<g>
		<defs>
			<rect id="SVGID_27_" x="548.2" y="93.6" width="67.5" height="57.4"/>
		</defs>
		<clipPath id="SVGID_28_">
			<use xlink:href="#SVGID_27_"  style="overflow:visible;"/>
		</clipPath>
		<path class="st100" d="M615.6,151h-67.5v-6.7h67.5V151z M562.3,135.1l-4.7-4.7l4.7-4.7l-2.4-2.4l-4.7,4.7l-4.7-4.7l-2.4,2.4
			l4.7,4.7l-4.7,4.7l2.4,2.4l4.7-4.7l4.7,4.7L562.3,135.1 M608.9,93.6h-33.7c-3.7,0-6.7,3-6.7,6.7v30.4c0,3.7,3,6.7,6.7,6.7h33.7
			c3.7,0,6.7-3,6.7-6.7v-30.4C615.6,96.6,612.6,93.6,608.9,93.6 M575.2,130.7l8.8-11.1l6.1,7.4l8.1-11.1l10.8,14.8H575.2z
			 M584.9,105.7c0,2.7-2.4,5.1-5.1,5.1c-2.7,0-5.1-2-5.1-5.1c0-3,2.4-5.1,5.1-5.1C582.6,100.7,584.9,103,584.9,105.7"/>
	</g>
</g>
<path class="st101" d="M88.8,352.2v77.1h17.3v24.2H88.7v21h-32v-21H5v-25.2c9.1-10.5,18.1-22.6,27.2-36.4c9-13.8,16.3-27.1,22-39.7
	H88.8z M56.7,429.3v-35.8C51.4,405,44.2,417,35.1,429.3H56.7z"/>
<path class="st102" d="M150.1,412.6c-4.3,0-7.9-3.5-7.9-7.9V261.2c0-4.3,3.5-7.9,7.9-7.9h350c4.3,0,7.9,3.5,7.9,7.9v143.6
	c0,4.3-3.5,7.9-7.9,7.9H150.1z"/>
<rect x="157.5" y="371.9" class="st1" width="25.5" height="25.5"/>
<rect x="191.9" y="371.9" class="st1" width="25.5" height="25.5"/>
<rect x="226.3" y="371.9" class="st1" width="25.5" height="25.5"/>
<rect x="260.7" y="371.9" class="st1" width="128.7" height="25.5"/>
<rect x="398.3" y="371.9" class="st1" width="25.5" height="25.5"/>
<rect x="432.7" y="371.9" class="st1" width="25.5" height="25.5"/>
<rect x="467.1" y="371.9" class="st1" width="25.5" height="25.5"/>
<rect x="157.5" y="337.5" class="st1" width="25.5" height="25.5"/>
<rect x="191.9" y="337.5" class="st1" width="25.5" height="25.5"/>
<rect x="226.3" y="337.5" class="st1" width="25.5" height="25.5"/>
<rect x="260.7" y="337.5" class="st1" width="25.5" height="25.5"/>
<rect x="295.1" y="337.5" class="st1" width="25.5" height="25.5"/>
<rect x="329.5" y="337.5" class="st1" width="25.5" height="25.5"/>
<rect x="363.9" y="337.5" class="st1" width="25.5" height="25.5"/>
<rect x="398.3" y="337.5" class="st1" width="25.5" height="25.5"/>
<rect x="432.7" y="337.5" class="st1" width="25.5" height="25.5"/>
<rect x="467.1" y="337.5" class="st1" width="25.5" height="25.5"/>
<rect x="157.5" y="303.1" class="st1" width="25.5" height="25.5"/>
<rect x="191.9" y="303.1" class="st1" width="25.5" height="25.5"/>
<rect x="226.3" y="303.1" class="st1" width="25.5" height="25.5"/>
<rect x="260.7" y="303.1" class="st1" width="25.5" height="25.5"/>
<rect x="295.1" y="303.1" class="st1" width="25.5" height="25.5"/>
<rect x="329.5" y="303.1" class="st1" width="25.5" height="25.5"/>
<rect x="363.9" y="303.1" class="st1" width="25.5" height="25.5"/>
<rect x="398.3" y="303.1" class="st1" width="25.5" height="25.5"/>
<rect x="432.7" y="303.1" class="st1" width="25.5" height="25.5"/>
<rect x="467.1" y="303.1" class="st1" width="25.5" height="25.5"/>
<rect x="157.5" y="268.6" class="st1" width="25.5" height="25.5"/>
<rect x="191.9" y="268.6" class="st1" width="25.5" height="25.5"/>
<rect x="226.3" y="268.6" class="st1" width="25.5" height="25.5"/>
<rect x="260.7" y="268.6" class="st1" width="25.5" height="25.5"/>
<rect x="295.1" y="268.6" class="st1" width="25.5" height="25.5"/>
<rect x="329.5" y="268.6" class="st1" width="25.5" height="25.5"/>
<rect x="363.9" y="268.6" class="st1" width="25.5" height="25.5"/>
<rect x="398.3" y="268.6" class="st1" width="25.5" height="25.5"/>
<rect x="432.7" y="268.6" class="st1" width="25.5" height="25.5"/>
<rect x="467.1" y="268.6" class="st1" width="25.5" height="25.5"/>
<rect x="292.4" y="414.9" class="st103" width="265" height="37"/>
<path class="st104" d="M594.4,422.1v22.6h12.3c1.6,0,3.1-0.6,4.3-1.8c1.2-1.2,1.8-2.8,1.8-4.3v-10.3c0-1.6-0.6-3.2-1.8-4.3
	c-1.2-1.2-2.8-1.8-4.3-1.8H594.4z"/>
<path class="st104" d="M588.2,414.9c1.6,0,3.2,0.6,4.4,1.8c1.2,1.2,1.8,2.8,1.8,4.3v24.6c0,1.6-0.6,3.2-1.8,4.4
	c-1.2,1.2-2.8,1.8-4.4,1.8h-30.8v-37H588.2z"/>
<path class="st104" d="M557.4,414.9h-8.2c0-1.8-0.7-3.5-2-4.9c-1.3-1.3-3-2-4.8-2h-85.5v-8.2h85.5c4,0,7.8,1.6,10.6,4.4
	C555.9,407.1,557.4,410.9,557.4,414.9"/>
<path class="st104" d="M255.5,437.7l-9.8-2.9c-0.6-0.2-1-0.7-1-1.4c0-0.6,0.4-1.2,1-1.4l9.8-2.9V437.7z"/>
<polygon class="st105" points="255.5,426 255.5,440.8 292.4,451.9 292.4,414.9 "/>
<path class="st98" d="M221.5,237.9c0,27.7-22.5,50.2-50.2,50.2c-27.7,0-50.2-22.5-50.2-50.2c0-27.7,22.5-50.2,50.2-50.2
	C199.1,187.7,221.5,210.2,221.5,237.9"/>
<g>
	<g>
		<defs>
			<rect id="SVGID_29_" x="139.1" y="207.3" width="64.4" height="61.2"/>
		</defs>
		<clipPath id="SVGID_30_">
			<use xlink:href="#SVGID_29_"  style="overflow:visible;"/>
		</clipPath>
		<path class="st106" d="M203.5,268.4l-64.4,0.1l0-6.4l64.4-0.1L203.5,268.4 M152.7,253.4l-4.5-4.5l4.5-4.5l-2.3-2.3l-4.5,4.5
			l-4.5-4.5l-2.3,2.3l4.5,4.5l-4.5,4.5l2.3,2.3l4.5-4.5l4.5,4.5L152.7,253.4 M198.6,207.3l3.9,14.2l-3.2,1c-1.6-2.9-2.9-5.5-4.5-7.1
			c-1.9-1.6-3.9-1.6-5.8-1.6l-8,0l0,33.8c0,1.6,0,3.2,1,3.9c1,0.6,3.2,0.6,5.5,0.6l0,3.2l-19.3,0V252c2.3,0,4.2,0,5.5-0.6
			c1-0.6,1-2.3,1-3.9l0-33.8l-8,0c-1.9,0-3.9,0-5.8,1.3c-1.6,1.3-3.2,4.2-4.5,7.1l-3.2-1l3.8-13.8L198.6,207.3z"/>
	</g>
</g>
<path class="st98" d="M399.8,56.1c0,28.8-23.3,52.1-52.1,52.1c-28.8,0-52.1-23.3-52.1-52.1C295.7,27.3,319,4,347.7,4
	C376.5,4,399.8,27.3,399.8,56.1"/>
<path class="st1" d="M320,41.4h-4.5v-14c0-1.8,1.5-3.3,3.3-3.3h14v4.5H320V41.4z"/>
<path class="st1" d="M381.2,41.4h-4.5V28.7h-12.7v-4.5h14c1.8,0,3.3,1.5,3.3,3.3V41.4z"/>
<path class="st1" d="M381.2,86.8c0,1.8-1.5,3.3-3.3,3.3h-14v-4.5h12.8V72.7h4.5V86.8z"/>
<path class="st1" d="M332.8,90.1h-14c-1.8,0-3.3-1.5-3.3-3.3v-14h4.5v12.7h12.7V90.1z"/>
<path class="st1" d="M346.9,80H327V60.1h19.9V80z M331.5,75.4h10.8V64.6h-10.8V75.4z"/>
<rect x="334.3" y="67.5" class="st1" width="5.1" height="5.1"/>
<rect x="359.9" y="67.5" class="st1" width="5.1" height="5.1"/>
<rect x="365" y="62.3" class="st1" width="5.1" height="5.1"/>
<rect x="354.8" y="62.3" class="st1" width="5.1" height="5.1"/>
<rect x="365" y="72.6" class="st1" width="5.1" height="5.1"/>
<rect x="354.8" y="72.6" class="st1" width="5.1" height="5.1"/>
<path class="st1" d="M345.7,53.9h-19.9V34h19.9V53.9z M330.4,49.3h10.8V38.5h-10.8V49.3z"/>
<rect x="333.2" y="41.3" class="st1" width="5.1" height="5.1"/>
<path class="st1" d="M371.3,53.9h-19.9V34h19.9V53.9z M355.9,49.3h10.8V38.5h-10.8V49.3z"/>
<rect x="358.8" y="41.3" class="st1" width="5.1" height="5.1"/>
</svg>
