<?xml version="1.0" encoding="utf-8"?>
<!-- Generator: Adobe Illustrator 22.1.0, SVG Export Plug-In . SVG Version: 6.00 Build 0)  -->
<svg version="1.1" id="Ebene_1" xmlns="http://www.w3.org/2000/svg" xmlns:xlink="http://www.w3.org/1999/xlink" x="0px" y="0px"
	 viewBox="0 0 640 480" style="enable-background:new 0 0 640 480;" xml:space="preserve">
<style type="text/css">
	.st0{fill:#FAFAFA;}
	.st1{fill:#BEC8D2;}
	.st2{fill:#B7B7B7;}
	.st3{fill:#E11E19;}
	.st4{fill:none;stroke:#CACFD2;stroke-width:1.786;stroke-miterlimit:10;}
	.st5{fill:none;stroke:#CACFD2;stroke-width:1.786;stroke-miterlimit:10;stroke-dasharray:3.028,3.028;}
	.st6{fill:none;stroke:#CACFD2;stroke-width:1.786;stroke-miterlimit:10;stroke-dasharray:2.862,2.862;}
	.st7{fill:#40A5CE;}
</style>
<path class="st0" d="M232.4,432.8h268.4c17.9,0,32.4-14.5,32.4-32.4V6H232.4V432.8z"/>
<path class="st1" d="M230.4,4v430.9h263.3c22.9,0,41.5-18.6,41.5-41.5V4H230.4z M490.7,432.8H232.4V6h300.7v384.3
	C533.2,413.8,514.1,432.8,490.7,432.8"/>
<rect x="261.4" y="104.2" class="st2" width="25.8" height="6.1"/>
<rect x="261.4" y="115.3" class="st2" width="47.9" height="6.1"/>
<rect x="260.5" y="221.4" class="st2" width="160.9" height="6"/>
<rect x="260.5" y="232.1" class="st2" width="118.9" height="6"/>
<rect x="261.4" y="170.6" class="st2" width="165.9" height="6.1"/>
<rect x="261.4" y="159.5" class="st2" width="165.9" height="6.1"/>
<rect x="261.4" y="181.6" class="st2" width="165.9" height="6.1"/>
<rect x="261.4" y="192.7" class="st2" width="165.9" height="6.1"/>
<rect x="260.5" y="210.6" class="st2" width="160.9" height="6"/>
<rect x="260.5" y="242.8" class="st2" width="160.9" height="6"/>
<rect x="260.5" y="253.5" class="st2" width="160.9" height="6"/>
<rect x="260.5" y="264.3" class="st2" width="160.9" height="6"/>
<rect x="260.5" y="275" class="st2" width="160.9" height="6"/>
<rect x="260.5" y="285.7" class="st2" width="160.9" height="6"/>
<rect x="260.5" y="353.7" class="st2" width="32.6" height="6"/>
<rect x="260.5" y="364.4" class="st2" width="43.4" height="6"/>
<rect x="260.5" y="381.8" class="st2" width="61.2" height="6"/>
<rect x="260.5" y="392.5" class="st2" width="68.4" height="6"/>
<path class="st1" d="M490.2,433.8h-29c-0.3,0-0.5-0.2-0.5-0.5V7.6c0-0.3,0.2-0.5,0.5-0.5h70.6c0.3,0,0.5,0.2,0.5,0.5v384
	C532.3,414.9,513.4,433.8,490.2,433.8"/>
<path class="st0" d="M523.6,50.2c0,15-12.1,27.1-27.1,27.1c-15,0-27.1-12.1-27.1-27.1c0-15,12.1-27.1,27.1-27.1
	C511.4,23.1,523.6,35.2,523.6,50.2"/>
<rect x="469" y="349.1" class="st0" width="55.3" height="6.1"/>
<rect x="469" y="338" class="st0" width="55.3" height="6.1"/>
<rect x="469" y="360.1" class="st0" width="55.3" height="6.1"/>
<rect x="469" y="382.2" class="st0" width="55.3" height="6.1"/>
<rect x="469" y="371.2" class="st0" width="55.3" height="6.1"/>
<rect x="469" y="393.3" class="st0" width="33.2" height="6.1"/>
<rect x="472.5" y="114.2" class="st0" width="47.9" height="6.1"/>
<rect x="472.5" y="103.1" class="st0" width="36.9" height="6.1"/>
<rect x="343.7" y="331" class="st3" width="99.6" height="78.6"/>
<polyline class="st4" points="449.8,415.3 449.8,418.5 446.6,418.5 "/>
<line class="st5" x1="440.1" y1="418.5" x2="339.6" y2="418.5"/>
<polyline class="st4" points="336.3,418.5 333.1,418.5 333.1,415.3 "/>
<line class="st6" x1="333.1" y1="409.2" x2="333.1" y2="326.4"/>
<polyline class="st4" points="333.1,323.3 333.1,320.1 336.3,320.1 "/>
<line class="st5" x1="342.8" y1="320.1" x2="443.4" y2="320.1"/>
<polyline class="st4" points="446.6,320.1 449.8,320.1 449.8,323.3 "/>
<line class="st6" x1="449.8" y1="329.5" x2="449.8" y2="412.2"/>
<path class="st2" d="M103.6,475.6v-9.1c0-6.4,0.8-12,2.4-16.7c1.6-4.7,4.1-9.2,7.5-13.3c3.4-4.2,9.3-9.5,17.7-16
	c6-4.7,10-8.1,12-10.2c2-2.1,3.4-4.1,4.4-6c1-1.9,1.5-4.1,1.5-6.3c0-7.5-4.5-11.3-13.6-11.3c-9.2,0-17.9,3.3-26.1,10v-27.5
	c6.3-3.2,12.1-5.4,17.6-6.6c5.4-1.3,11-1.9,16.8-1.9c12.3,0,21.8,2.9,28.6,8.8c6.7,5.9,10.1,14.1,10.1,24.8c0,8.2-1.8,15.1-5.3,20.7
	c-3.5,5.7-10.1,11.6-19.6,17.8c-7.3,4.7-12.2,8.2-14.6,10.4c-2.4,2.2-3.6,4-3.7,5.6h44.2v27H103.6z"/>
<path class="st0" d="M383.8,387.9c3.2,7.8,9.7-1.7,14.3-2.7c3.3,6.9,15.4,6,23,4.3c0.9-0.1,1.6-0.6,0.7-1.1
	c-3.9-1.4-8.6,0.9-12.8,0.3c-4.6-0.6-4.6-3.3-7.7-5.2c-5.1-2.6-9.7,0.3-12.9,3.1c-0.4-1-1.1-1.6-1.9-2.6c-1-1-5.4-0.8-4.3,0.4
	C383.4,385.5,383.4,386.7,383.8,387.9"/>
<path class="st0" d="M423.1,403.4h-63v-6.3h63V403.4z M373.4,388.6l-4.4-4.4l4.4-4.4l-2.2-2.2l-4.4,4.4l-4.4-4.4l-2.2,2.2l4.4,4.4
	l-4.4,4.4l2.2,2.2l4.4-4.4l4.4,4.4L373.4,388.6"/>
<path class="st0" d="M421.1,348.9c-0.7,0.7-1.4,1.4-1.4,2.1c-0.1,0.7,0.7,1.4,1.3,2c1,1.1,2,2,2,3c0,1-1.1,2.1-2.2,3.2l-8.7,8.7
	l-3-3l9-8.9l-2-2l-3,3l-7.9-7.9l8.1-8.1c0.8-0.8,2.2-0.8,3,0l4.9,4.9C422,346.7,422,348,421.1,348.9 M383.8,370.4l17.4-17.5l7.9,7.9
	l-17.4,17.5h-7.9V370.4z"/>
<polygon class="st7" points="442.6,474.3 424.5,392.4 496,436.2 463.5,447.1 "/>
<rect x="465.4" y="440.2" transform="matrix(0.8138 -0.5811 0.5811 0.8138 -178.6404 359.4005)" class="st7" width="12.4" height="36.6"/>
</svg>
