<svg id="Wortbildmarke" xmlns="http://www.w3.org/2000/svg" xmlns:xlink="http://www.w3.org/1999/xlink" viewBox="0 0 199 38"><defs><style>.cls-1{fill:none;}.cls-2{clip-path:url(#clip-path);}.cls-3{fill:#212934;}.cls-4{fill:#e11e19;}</style><clipPath id="clip-path"><rect class="cls-1" width="199" height="38"/></clipPath></defs><g class="cls-2"><path class="cls-3" d="M66.821,29.192h-2.3V26.756H64.47a5.3,5.3,0,0,1-4.928,2.772A5.354,5.354,0,0,1,55.223,27.6a7.9,7.9,0,0,1-1.618-5.244,8.6,8.6,0,0,1,1.792-5.7,5.911,5.911,0,0,1,4.774-2.141,4.6,4.6,0,0,1,4.3,2.324h.055V7.969h2.3Zm-2.3-6.481V20.6a4.1,4.1,0,0,0-1.148-2.941,3.849,3.849,0,0,0-2.911-1.2,3.963,3.963,0,0,0-3.3,1.539,6.75,6.75,0,0,0-1.2,4.256,6.073,6.073,0,0,0,1.155,3.914,3.774,3.774,0,0,0,3.1,1.434,3.922,3.922,0,0,0,3.116-1.385A5.17,5.17,0,0,0,64.525,22.711Z"/><path class="cls-3" d="M79.669,29.528a6.649,6.649,0,0,1-5.075-2.008,7.444,7.444,0,0,1-1.9-5.328,7.751,7.751,0,0,1,1.974-5.641,7.094,7.094,0,0,1,5.334-2.03,6.433,6.433,0,0,1,5.005,1.973,7.832,7.832,0,0,1,1.8,5.475,7.7,7.7,0,0,1-1.939,5.494A6.8,6.8,0,0,1,79.669,29.528Zm.168-13.075a4.369,4.369,0,0,0-3.5,1.5,6.182,6.182,0,0,0-1.288,4.151,5.849,5.849,0,0,0,1.3,4.019A4.427,4.427,0,0,0,79.837,27.6a4.2,4.2,0,0,0,3.423-1.442,6.255,6.255,0,0,0,1.2-4.1,6.369,6.369,0,0,0-1.2-4.145A4.18,4.18,0,0,0,79.837,16.453Z"/><path class="cls-3" d="M106.853,29.192h-2.87l-4.62-7.686a6.924,6.924,0,0,1-.462-.993h-.056q-.141.323-.476.993l-4.76,7.686H90.725L97.445,19.1,91.257,9.117h2.884l4.1,7.055a14.448,14.448,0,0,1,.714,1.4h.056a15.542,15.542,0,0,1,.784-1.455l4.27-7h2.7l-6.314,9.953Z"/><path class="cls-3" d="M112.98,11.217a1.455,1.455,0,0,1-1.049-.42,1.417,1.417,0,0,1-.435-1.065,1.474,1.474,0,0,1,1.484-1.5,1.485,1.485,0,0,1,1.072.428,1.5,1.5,0,0,1,0,2.121A1.474,1.474,0,0,1,112.98,11.217ZM114.1,29.192h-2.3V14.856h2.3Z"/><path class="cls-3" d="M120.088,28.674V26.211a6.794,6.794,0,0,0,4.13,1.385q3.022,0,3.024-2.016a1.746,1.746,0,0,0-.26-.973,2.577,2.577,0,0,0-.7-.707,5.407,5.407,0,0,0-1.036-.552q-.6-.246-1.281-.512a16.326,16.326,0,0,1-1.673-.763,5.057,5.057,0,0,1-1.2-.868,3.23,3.23,0,0,1-.729-1.1,3.9,3.9,0,0,1-.244-1.442,3.425,3.425,0,0,1,.462-1.785,4.1,4.1,0,0,1,1.232-1.3,5.739,5.739,0,0,1,1.756-.791,7.773,7.773,0,0,1,2.038-.266,8.232,8.232,0,0,1,3.332.643v2.324a6.5,6.5,0,0,0-3.64-1.035,4.25,4.25,0,0,0-1.162.147,2.819,2.819,0,0,0-.889.413,1.885,1.885,0,0,0-.574.636,1.673,1.673,0,0,0-.2.82,1.953,1.953,0,0,0,.2.937,2.044,2.044,0,0,0,.595.672,4.563,4.563,0,0,0,.952.532c.373.16.8.331,1.274.519a17.923,17.923,0,0,1,1.708.748,5.883,5.883,0,0,1,1.287.869,3.371,3.371,0,0,1,.82,1.112,3.594,3.594,0,0,1,.287,1.5,3.532,3.532,0,0,1-.469,1.849,4.02,4.02,0,0,1-1.253,1.3,5.726,5.726,0,0,1-1.807.77,8.9,8.9,0,0,1-2.141.252A8.123,8.123,0,0,1,120.088,28.674Z"/><path class="cls-3" d="M136.505,11.217a1.458,1.458,0,0,1-1.05-.42,1.416,1.416,0,0,1-.434-1.065,1.472,1.472,0,0,1,1.484-1.5,1.482,1.482,0,0,1,1.071.428,1.5,1.5,0,0,1,0,2.121A1.471,1.471,0,0,1,136.505,11.217Zm1.12,17.975h-2.3V14.856h2.3Z"/><path class="cls-3" d="M156.717,28.045q0,7.9-7.56,7.895a10.151,10.151,0,0,1-4.648-1.008v-2.3a9.557,9.557,0,0,0,4.62,1.343q5.292,0,5.292-5.627V26.784h-.056a5.8,5.8,0,0,1-9.233.833,7.638,7.638,0,0,1-1.631-5.131,8.924,8.924,0,0,1,1.757-5.809,5.868,5.868,0,0,1,4.809-2.156,4.671,4.671,0,0,1,4.3,2.324h.056V14.856h2.3Zm-2.3-5.334V20.6a4.1,4.1,0,0,0-1.155-2.927,3.8,3.8,0,0,0-2.877-1.217A3.985,3.985,0,0,0,147.058,18a6.894,6.894,0,0,0-1.2,4.332,5.931,5.931,0,0,0,1.154,3.83,3.733,3.733,0,0,0,3.059,1.434,4,4,0,0,0,3.143-1.371A5.11,5.11,0,0,0,154.421,22.711Z"/><path class="cls-3" d="M175.472,29.192h-2.3V21.017q0-4.563-3.332-4.564a3.615,3.615,0,0,0-2.849,1.3,4.8,4.8,0,0,0-1.127,3.269v8.175h-2.3V14.856h2.3v2.38h.056a5.174,5.174,0,0,1,4.7-2.715,4.386,4.386,0,0,1,3.6,1.518,6.77,6.77,0,0,1,1.246,4.39Z"/><path class="cls-4" d="M193.94,18.378c1.578,0,3.978-2.56,3.978-3.932V1h-12.33V18.378Z"/><path class="cls-4" d="M24.122,26.961a2.949,2.949,0,0,1-2.637,2.532H19.36V8.438h4.751Z"/><path class="cls-4" d="M29.789,8.258h6.145a7.8,7.8,0,0,1,5.18,1.46,4.942,4.942,0,0,1,1.727,3.992,4.948,4.948,0,0,1-.766,2.875A4.632,4.632,0,0,1,40,18.251v.061q3.57.988,3.575,5a7.011,7.011,0,0,1-.438,2.576,4.792,4.792,0,0,1-1.355,1.937,6.133,6.133,0,0,1-2.337,1.255,12.113,12.113,0,0,1-3.426.411H27.335V10.761a3.229,3.229,0,0,1,2.459-2.5Zm9.055,14.7a2.482,2.482,0,0,0-.65-1.926,3.329,3.329,0,0,0-2.221-.555H31.9V25.6h4.214a3.2,3.2,0,0,0,2.093-.556,2.669,2.669,0,0,0,.649-2.07Zm-.506-8.4a2.217,2.217,0,0,0-.594-1.766,3.016,3.016,0,0,0-1.954-.494H31.954v4.6h3.958a2.7,2.7,0,0,0,1.86-.555,2.275,2.275,0,0,0,.555-1.8Z"/><path class="cls-4" d="M12.973,12.635c-5.751-.844-7.14,1.081-7.14,6.362,0,5.07,1.41,6.973,7.61,6.324,1.946-.205,2.417.422,2.79,3.465a17.428,17.428,0,0,1-5.746.806c-3.136-.1-5.709-.871-7.217-2.617S1,22.516,1,18.867C1,11.462,4.33,8.408,10.784,8.408a14.061,14.061,0,0,1,5.281.951C15.535,12.705,14.962,12.927,12.973,12.635Z"/></g></svg>