<?xml version="1.0" encoding="utf-8"?>
<!-- Generator: Adobe Illustrator 22.1.0, SVG Export Plug-In . SVG Version: 6.00 Build 0)  -->
<svg version="1.1" id="Ebene_1" xmlns="http://www.w3.org/2000/svg" xmlns:xlink="http://www.w3.org/1999/xlink" x="0px" y="0px"
	 viewBox="0 0 640 480" style="enable-background:new 0 0 640 480;" xml:space="preserve">
<style type="text/css">
	.st0{clip-path:url(#SVGID_2_);fill:url(#SVGID_3_);}
	.st1{clip-path:url(#SVGID_5_);fill:url(#SVGID_6_);}
	.st2{fill:#0A2D44;}
	.st3{fill:#071E31;}
	.st4{fill:#FFFFFF;}
	.st5{fill:#6D6E71;}
	.st6{clip-path:url(#SVGID_8_);fill:url(#SVGID_9_);}
	.st7{fill:#7FC3DE;}
	.st8{fill:#D5F3FB;}
	.st9{fill:#586371;}
	.st10{fill:#E1E7EC;}
	.st11{fill:#A4D5C2;}
	.st12{fill:#212934;}
	.st13{fill:#8E1007;}
	.st14{fill:#160105;}
	.st15{fill:#F3331E;}
	.st16{fill:#280810;}
	.st17{fill:#E11E19;}
	.st18{fill:#FF6F66;}
	.st19{fill:#F2F2F2;}
	.st20{fill:#40A5CE;}
	.st21{opacity:0.33;}
	.st22{clip-path:url(#SVGID_11_);fill:#FFFFFF;}
	.st23{fill:#E95653;}
	.st24{fill:#F08E8C;}
	.st25{clip-path:url(#SVGID_13_);fill:#A3A3A3;}
	.st26{clip-path:url(#SVGID_13_);fill:#9E9E9E;}
	.st27{clip-path:url(#SVGID_15_);fill:#E95653;}
	.st28{clip-path:url(#SVGID_17_);fill:#858585;}
	.st29{clip-path:url(#SVGID_19_);fill:#858585;}
	.st30{fill:#DF1D18;}
	.st31{fill:none;}
	.st32{opacity:0.32;}
</style>
<g>
	<defs>
		<path id="SVGID_1_" d="M84.8,76.3C71.7,76.3,61.1,87,61.1,100v310.7h527.6V100c0-13.1-10.6-23.7-23.7-23.7H84.8z"/>
	</defs>
	<clipPath id="SVGID_2_">
		<use xlink:href="#SVGID_1_"  style="overflow:visible;"/>
	</clipPath>
	
		<linearGradient id="SVGID_3_" gradientUnits="userSpaceOnUse" x1="-399.5497" y1="2479.3665" x2="-398.5497" y2="2479.3665" gradientTransform="matrix(527.5743 0 0 -527.5743 210853.2656 1308293.625)">
		<stop  offset="0" style="stop-color:#FFFFFF"/>
		<stop  offset="5.454550e-02" style="stop-color:#FFFFFF"/>
		<stop  offset="0.2" style="stop-color:#FFFFFF"/>
		<stop  offset="0.6364" style="stop-color:#FFFFFF"/>
		<stop  offset="0.9364" style="stop-color:#FFFFFF"/>
		<stop  offset="0.9455" style="stop-color:#FFFFFF"/>
		<stop  offset="0.9773" style="stop-color:#DEE3E8"/>
		<stop  offset="1" style="stop-color:#FFFFFF"/>
	</linearGradient>
	<rect x="61.1" y="76.3" class="st0" width="527.6" height="334.4"/>
</g>
<g>
	<defs>
		<path id="SVGID_4_" d="M84.8,76.3C71.7,76.3,61.1,87,61.1,100v310.7h527.6V100c0-13.1-10.6-23.7-23.7-23.7H84.8z"/>
	</defs>
	<clipPath id="SVGID_5_">
		<use xlink:href="#SVGID_4_"  style="overflow:visible;"/>
	</clipPath>
	
		<linearGradient id="SVGID_6_" gradientUnits="userSpaceOnUse" x1="-399.5497" y1="2479.3665" x2="-398.5497" y2="2479.3665" gradientTransform="matrix(527.5743 0 0 -527.5743 210853.2656 1308293.625)">
		<stop  offset="0" style="stop-color:#666666"/>
		<stop  offset="5.454550e-02" style="stop-color:#CCCCCC"/>
		<stop  offset="0.2" style="stop-color:#333333"/>
		<stop  offset="0.6364" style="stop-color:#333333"/>
		<stop  offset="0.9364" style="stop-color:#6B6C6F"/>
		<stop  offset="0.9455" style="stop-color:#6D6E71"/>
		<stop  offset="0.9773" style="stop-color:#FFFFFF"/>
		<stop  offset="1" style="stop-color:#616161"/>
	</linearGradient>
	<rect x="61.1" y="76.3" class="st1" width="527.6" height="334.4"/>
</g>
<path class="st2" d="M630,416.8H25.3c-1.7,0-3-1.4-3-3v-3.2c0-1.7,1.4-3,3-3H630c1.7,0,3,1.4,3,3v3.2
	C633,415.5,631.7,416.8,630,416.8"/>
<path class="st3" d="M335.9,416.8l-310.6,0c0,0,11.7,5.4,14.8,6.9c0.4,0.2,0.9,0.3,1.4,0.3h294.3h277.9c0.4,0,0.8-0.1,1.2-0.2
	c3.3-1.3,15.5-7,15.5-7L335.9,416.8z"/>
<path class="st3" d="M564.9,79.4H84.8c-11.4,0-20.6,9.2-20.6,20.6v307.6h521.4V100C585.6,88.6,576.3,79.4,564.9,79.4"/>
<rect x="84.8" y="100" class="st4" width="480.1" height="286.9"/>
<path class="st5" d="M240.4,408c0,3,2.4,5.4,5.4,5.4h163.7c3,0,5.4-2.4,5.4-5.4c0-0.1,0-0.3,0-0.4H240.4
	C240.4,407.7,240.4,407.9,240.4,408"/>
<g>
	<defs>
		<path id="SVGID_7_" d="M312.5,51.9c0,1.7,1.4,3,3,3s3-1.4,3-3c0-1.7-1.4-3.1-3-3.1S312.5,50.2,312.5,51.9"/>
	</defs>
	<clipPath id="SVGID_8_">
		<use xlink:href="#SVGID_7_"  style="overflow:visible;"/>
	</clipPath>
	
		<linearGradient id="SVGID_9_" gradientUnits="userSpaceOnUse" x1="-824.0208" y1="1973.3406" x2="-823.0208" y2="1973.3406" gradientTransform="matrix(2.4984 -1.5145 -1.5145 -2.4984 5361.896 3734.71)">
		<stop  offset="0" style="stop-color:#242426"/>
		<stop  offset="8.181820e-02" style="stop-color:#0E0E0F"/>
		<stop  offset="0.1064" style="stop-color:#121213"/>
		<stop  offset="0.3945" style="stop-color:#404042"/>
		<stop  offset="0.6497" style="stop-color:#616164"/>
		<stop  offset="0.8603" style="stop-color:#757579"/>
		<stop  offset="1" style="stop-color:#7C7C80"/>
	</linearGradient>
	<polygon class="st6" points="309.8,50.5 317,46.2 321.3,53.3 314.2,57.7 	"/>
</g>
<polyline class="st7" points="465.1,36.3 465.1,359.7 256.4,359.7 228.1,340.2 228.1,36.3 "/>
<polygon class="st8" points="256.4,359.7 228.1,340.2 244.2,338.6 "/>
<rect x="239.9" y="57.8" class="st9" width="214" height="19.1"/>
<rect x="302" y="91.2" class="st10" width="91.5" height="11.1"/>
<rect x="244.7" y="114.3" class="st10" width="51" height="5.6"/>
<rect x="303.4" y="114.3" class="st10" width="97.3" height="5.6"/>
<rect x="408.4" y="114.3" class="st10" width="44.7" height="5.6"/>
<rect x="244.7" y="124.2" class="st10" width="208.4" height="5.6"/>
<rect x="399.7" y="134.2" class="st10" width="53.4" height="5.6"/>
<rect x="244.7" y="134.2" class="st10" width="147.3" height="5.6"/>
<rect x="244.7" y="144.1" class="st10" width="208.4" height="5.6"/>
<rect x="290.7" y="154" class="st10" width="71.1" height="5.6"/>
<rect x="244.7" y="154" class="st10" width="38.3" height="5.6"/>
<rect x="369.4" y="154" class="st10" width="83.7" height="5.6"/>
<rect x="330.5" y="164" class="st10" width="122.6" height="5.6"/>
<rect x="244.7" y="164" class="st10" width="78.1" height="5.6"/>
<rect x="244.7" y="173.9" class="st10" width="208.4" height="5.6"/>
<rect x="244.7" y="183.9" class="st10" width="129.8" height="5.6"/>
<rect x="382.2" y="183.9" class="st10" width="70.9" height="5.6"/>
<rect x="244.7" y="193.8" class="st10" width="208.4" height="5.6"/>
<rect x="244.7" y="203.8" class="st10" width="67.8" height="5.6"/>
<rect x="320.1" y="203.8" class="st10" width="133" height="5.6"/>
<rect x="244.7" y="213.7" class="st10" width="101.2" height="5.6"/>
<rect x="353.5" y="213.7" class="st10" width="65.5" height="5.6"/>
<rect x="426.7" y="213.7" class="st10" width="26.4" height="5.6"/>
<rect x="244.7" y="223.6" class="st10" width="208.4" height="5.6"/>
<rect x="244.7" y="233.6" class="st10" width="90" height="5.6"/>
<rect x="244.7" y="278.1" class="st10" width="90" height="5.6"/>
<rect x="244.7" y="289.8" class="st10" width="90" height="5.6"/>
<rect x="361" y="278.1" class="st10" width="90" height="5.6"/>
<rect x="361" y="289.8" class="st10" width="90" height="5.6"/>
<rect x="244.7" y="318.3" class="st10" width="90" height="1.1"/>
<rect x="361" y="318.3" class="st10" width="90" height="1.1"/>
<rect x="342.4" y="233.6" class="st10" width="67.1" height="5.6"/>
<rect x="417.2" y="233.6" class="st10" width="35.9" height="5.6"/>
<path class="st11" d="M283.5,309.3c-4.4,0-8.8-0.9-13-2.6c-8.3-3.5-14.8-10-18.3-18.3c-3.4-8.3-3.4-17.5,0-25.9
	c5.3-12.7,17.5-20.8,31.2-20.8c4.4,0,8.8,0.9,13,2.6c17.2,7.1,25.4,27,18.3,44.2C309.5,301.1,297.3,309.3,283.5,309.3L283.5,309.3z
	 M283.6,243.2c-13.1,0-24.8,7.8-29.8,19.9c-3.3,8-3.3,16.7,0,24.7c3.3,8,9.5,14.2,17.5,17.5c4,1.6,8.1,2.5,12.4,2.5
	c13.1,0,24.8-7.8,29.8-19.9c3.3-8,3.3-16.7,0-24.7c-3.3-8-9.5-14.2-17.5-17.5C292,244,287.8,243.2,283.6,243.2 M285.8,300.2l2.6-0.3
	l0.8,5.8l-2.6,0.3L285.8,300.2z M270.9,303.4l2.3-5.4l2.4,1l-2.3,5.4L270.9,303.4z M297.9,295.9l2-1.6l3.6,4.7l-2,1.6L297.9,295.9z
	 M283.5,298.7c-3.1,0-6-0.6-8.9-1.8c-5.7-2.4-10.2-6.8-12.5-12.6c-2.4-5.7-2.4-12,0-17.8c3.6-8.7,12-14.3,21.4-14.3
	c3.1,0,6,0.6,8.9,1.8c5.7,2.4,10.2,6.8,12.5,12.6c2.4,5.7,2.4,12,0,17.8C301.4,293.1,293,298.7,283.5,298.7L283.5,298.7z
	 M283.6,253.1c-9.1,0-17.2,5.4-20.7,13.8c-4.7,11.4,0.7,24.5,12.1,29.3c2.7,1.1,5.6,1.7,8.6,1.7c9.1,0,17.2-5.4,20.7-13.8
	c4.7-11.4-0.7-24.5-12.1-29.3C289.4,253.6,286.5,253.1,283.6,253.1 M283.5,295.4c-2.6,0-5.2-0.5-7.6-1.5c-3.9-1.6-7.1-4.4-9.3-8
	l1,0.4c2.1,3.2,5.1,5.6,8.6,7c2.4,1,4.8,1.5,7.4,1.5c1.2,0,2.5-0.1,3.7-0.4l1,0.4C286.6,295.2,285.1,295.4,283.5,295.4 M258.6,293.2
	l4.7-3.6l1.6,2l-4.7,3.6L258.6,293.2z M297,289.4c1-1,2-2.1,2.8-3.3l0.6,0.2c-0.8,1.2-1.7,2.3-2.7,3.3L297,289.4z M306.2,286l1-2.4
	l5.4,2.3l-1,2.4L306.2,286z M269.9,278l2-4.9l21.4,8.9l-2,4.9L269.9,278z M253.1,278.3l5.8-0.8l0.3,2.6l-5.8,0.8L253.1,278.3z
	 M302.7,278.1c0.3-1.9,0.2-3.9-0.1-5.8l0.6,0.3c0.3,1.9,0.3,3.9,0,5.8L302.7,278.1z M263.6,275.5c0-1.5,0.1-2.9,0.4-4.3l0.6,0.2
	c-0.3,1.4-0.4,2.8-0.4,4.3L263.6,275.5z M274.7,266.5l2-4.9l21.4,8.9l-2,4.9L274.7,266.5z M308.2,270.8l5.8-0.8l0.3,2.6l-5.8,0.8
	L308.2,270.8z M254.8,265l1-2.4l5.4,2.3l-1,2.4L254.8,265z M267.6,263.5c1.1-1.5,2.5-2.9,4.1-4.1l0.6,0.3c-1.6,1.1-3,2.5-4.2,4
	L267.6,263.5z M302.6,259.2l4.7-3.6l1.6,2l-4.7,3.6L302.6,259.2z M295.4,260.2c-1.4-1.1-2.9-1.9-4.4-2.6c-1.6-0.7-3.3-1.1-5-1.3
	l-1.7-0.7c2.4,0.1,4.7,0.6,6.9,1.5c2.2,0.9,4.2,2.2,6,3.9L295.4,260.2z M263.9,251.9l2-1.6l3.6,4.7l-2,1.6L263.9,251.9z
	 M291.9,251.9l2.3-5.4l2.4,1l-2.3,5.4L291.9,251.9z M278.3,245.1l2.6-0.3l0.8,5.8l-2.6,0.3L278.3,245.1z"/>
<path class="st11" d="M339,328.6c-10.6,11.9-28.9,13.1-40.8,2.5c-11.9-10.6-13.1-28.9-2.5-40.8c10.6-11.9,28.9-13.1,40.8-2.5
	C348.4,298.3,349.6,316.6,339,328.6 M296.6,291.1c-10.1,11.5-9.1,29,2.4,39.1c11.5,10.1,29,9.1,39.1-2.4c10.1-11.5,9.1-29-2.4-39.1
	C324.2,278.5,306.7,279.6,296.6,291.1 M336.4,327.4l-3.7-3.3l1.4-1.6l3.7,3.3L336.4,327.4z M324.8,334.5l-1.6-4.7l2-0.7l1.6,4.7
	L324.8,334.5z M338.1,314.5l0.4-2.1l4.8,1l-0.4,2.1L338.1,314.5z M332.2,322.6c-7.2,8.2-19.8,9-28,1.7c-8.2-7.2-9-19.8-1.7-28
	c7.2-8.2,19.8-9,28-1.7C338.7,301.8,339.4,314.4,332.2,322.6 M312,327.9c7.1,2.1,14.9-0.2,19.8-5.7c4.9-5.5,6.2-13.5,3.3-20.3
	l-0.2-0.4h0l0-0.1l0-0.1l0,0l-0.2-0.4c-1.1-2.2-2.6-4.2-4.5-5.8c-1.9-1.6-4-2.9-6.3-3.7l-0.5-0.2l0,0l-0.1,0l-0.1,0l0,0l-0.4-0.1
	c-7.1-2.1-14.9,0.2-19.8,5.7c-4.9,5.5-6.2,13.5-3.3,20.4l0.2,0.4h0l0,0.1l0,0.1l0,0l0.2,0.4c1.1,2.2,2.6,4.2,4.5,5.8
	c1.9,1.7,4,2.9,6.3,3.7l0.5,0.2l0,0l0.1,0l0.1,0l0,0L312,327.9z M326.9,322.7l-1-0.9l4.7-5.3l1,0.9L326.9,322.7z M311.2,334.9l1-4.8
	l2.1,0.4l-1,4.8L311.2,334.9z M337.9,303.4l-0.7-2l4.7-1.6l0.7,2L337.9,303.4z M319.3,325l-1-0.9l13.6-15.4l1,0.9L319.3,325z
	 M311.5,327.6l-1.4-9.7l1.9,1.7l14.8-16.7l-1.9-1.7l9.8,0.2L311.5,327.6z M314.7,322l14.8-16.7l-2-1.8l-14.8,16.7L314.7,322z
	 M300.8,329.8l-1.6-1.4l3.3-3.7l1.6,1.4L300.8,329.8z M332.2,293.9l-1.6-1.4l3.3-3.7l1.6,1.4L332.2,293.9z M310.1,317.7l-10-0.3
	l23.2-26.2l1.5,9.9L310.1,317.7z M309.3,317.2l14.8-16.7l-2-1.8l-14.8,16.7L309.3,317.2z M306.6,314.9l14.8-16.7l-2-1.8l-14.8,16.7
	L306.6,314.9z M292.8,318.8l-0.7-2l4.7-1.6l0.7,2L292.8,318.8z M320.5,288.1l1-4.8l2.1,0.4l-1,4.8L320.5,288.1z M307.3,303.9
	l-0.5-0.5l3.2-3.6l0.5,0.5L307.3,303.9z M302,305.5l-0.5-0.5l9.4-10.7l0.5,0.5L302,305.5z M291.3,305.2l0.4-2.1l4.8,1l-0.4,2.1
	L291.3,305.2z M309.4,289.4l-1.6-4.7l2-0.7l1.6,4.7L309.4,289.4z M300.6,296l-3.7-3.3l1.4-1.6l3.7,3.3L300.6,296z"/>
<path class="st12" d="M264.7,318.5c-0.7,0-1.3-0.1-1.8-0.5c-0.4-0.3-0.7-0.8-0.8-1.4c-0.8,0.5-1.6,0.7-2.2,0.7
	c-0.4,0-0.8-0.2-1.1-0.5c-1.7,1.2-6.1,2.5-7.6,0.9c-0.6-0.6-0.7-1.4-0.3-2.2c0.6-1.1,2.2-1.9,3.5-1.7l0.3,0l0.1,0.3
	c0.1,0.3,0.1,0.5,0,0.7c0,0.2,0,0.3,0,0.4c0,0.2-0.1,0.4-0.3,0.5c-0.2,0-0.4-0.1-0.5-0.3c-0.1-0.2,0-0.4,0-0.6c0-0.1,0-0.1,0-0.2
	c-1,0-2.1,0.6-2.4,1.3c-0.2,0.4-0.2,0.9,0.2,1.3c1.2,1.3,5.6-0.2,6.8-1.2l0.3-0.3l0.3,0.3c0.2,0.3,0.5,0.4,0.8,0.5
	c0.6,0.1,1.5-0.3,2.2-0.9l0.6-0.5l0,0.8c0,0.7,0.2,1.2,0.6,1.5c1,0.7,3.2,0.1,4.6-0.3l0.2-0.1c8-2.3,18.2-10.3,20.1-17.9
	c1-4.1,0.3-7-2-8.6c-4.1-2.7-12.6-0.7-17.5,2.9c-4,3-10.5,8.6-8.4,13.3c1.6,3.5,6.6,3.1,9.4,2.4c0.2-0.1,0.4,0.1,0.5,0.3
	c0.1,0.2-0.1,0.4-0.3,0.5c-4,1.1-8.8,0.7-10.3-2.8c-2.3-5.2,4.4-11.1,8.7-14.2c5.1-3.8,13.9-5.9,18.4-2.9c1.8,1.2,3.7,3.8,2.3,9.4
	c-2,7.9-12.5,16.1-20.7,18.5l-0.2,0.1C267.2,318.1,265.9,318.5,264.7,318.5 M291.3,333.2c0.3-0.4,0.5-0.7,0.8-1
	c2.3-2.9,4.5-5.9,6.6-8.9c0.6-0.9,1.3-1.8,1.9-2.7c3.3-2.1,7-3.9,10.2-3.6c0,0.1,0,0.2,0,0.3l0.1,0.2l0.3,0c1.2,0.1,2.2-0.4,3.3-0.9
	c0.9-0.4,1.8-0.9,2.7-0.9c0.3,0,0.7,0.1,1.2,0.1c1.1,0.1,2.5,0.3,3.4-0.4c0.8,0.3,1.8-0.4,2.6-0.9c0.1-0.1,0.3-0.2,0.4-0.3
	c0.2,0.5,0.6,1,1.2,1.2c-0.4,0.4-0.7,0.9-0.8,1.3l-0.1,0.4l0.4,0.1c2.6,1,5.9,0.2,9-0.5c2.1-0.5,4.1-0.9,5.9-0.9
	c0.2,0,0.4-0.2,0.4-0.4c0-0.2-0.2-0.4-0.4-0.4c-1.9,0-4,0.4-6.1,0.9c-2.8,0.7-5.8,1.3-8.1,0.7c0.2-0.3,0.5-0.6,0.8-0.9
	c2.3,0.3,6-0.9,6.8-2.3l0.2-0.3l-0.2-0.2c-0.5-0.6-1.5-0.7-2.6-0.4c-1.5,0.3-3.1,1.3-4.3,2.3c0,0,0,0,0,0c-1.1-0.3-1.1-1-1.1-1.2
	l0-0.6l-0.5,0.2c-0.3,0.1-0.6,0.3-1,0.6c-0.5,0.3-1.2,0.8-1.7,0.9c0,0,0-0.1,0-0.1l0.3-0.8L322,314c-0.1,0-0.4,0-0.4,0l-0.7-0.2
	l0.2,0.7c0,0.1,0.1,0.3,0.1,0.4c-0.6,0.4-1.5,0.3-2.6,0.2c-0.5-0.1-0.9-0.1-1.3-0.1c-1.1,0-2.1,0.5-3.1,1c-0.9,0.4-1.7,0.8-2.5,0.8
	c0-0.1,0-0.2,0-0.3l-0.1-0.2l-0.3,0c-3-0.4-6.3,1-9.4,2.7c0.3-0.4,0.6-0.8,0.8-1.1c1.1-1.4,2.2-2.9,3.3-4.3c1-0.7,1.9-1.5,2.8-2.2
	c5.3-4.3,9.4-9.5,11.8-15l0.4-1l-1,0.5c-1.9,1-3.4,2.9-4.8,4.6c-0.3,0.4-0.7,0.8-1,1.2c-3.1,3.7-6,7.5-8.9,11.3
	c-2.7,1.9-5.9,3.7-9.4,3.3c-0.1,0-0.3,0-0.5,0c-0.4,0-1-0.1-1.2-0.2c0-0.1,0-0.3,0.1-0.4c0.1-0.4,0.1-0.8-0.1-1
	c-0.9-0.8-1.8-0.6-2.8-0.2c0-0.1,0-0.3-0.1-0.4c-0.4-0.9-2-1.2-3-1.1c-1.7,0.2-3.5,0.7-5.3,1.5c-0.1-0.2-0.4-0.2-0.6,0
	c-0.3,0.2-0.5,0.5-0.8,0.7c-1.5,0.8-2.9,1.8-3.8,2.9l0.5,0.6c0.6-0.4,1.1-0.9,1.7-1.3c0.7-0.5,1.4-1,2-1.5c2-1.1,4.3-1.8,6.2-2
	c1-0.1,2,0.3,2.2,0.6c0.1,0.2-0.2,0.5-0.6,0.9l0.4,0.7l0.5-0.3c1.4-0.7,2-1,2.7-0.4c0,0.1,0,0.2,0,0.3c-0.1,0.4-0.2,0.8,0.1,1.1
	c0.4,0.4,1.2,0.4,1.8,0.5c0.2,0,0.3,0,0.4,0c2.9,0.3,5.7-0.7,8-2.1c-0.6,0.8-1.3,1.7-1.9,2.5c-0.7,0.9-1.3,1.8-2,2.7
	c-1.6,1.1-3.2,2.2-4.5,3.1l-1.8,1.3c-4.1,2.9-10.2,7.2-8.5,12.9l0.1,0.3l0.3,0c0.1,0,0.2,0,0.3,0C288.2,337.6,290,335,291.3,333.2
	 M298.1,322.8c-2.1,2.9-4.3,6-6.6,8.9c-0.2,0.3-0.5,0.7-0.8,1c-1.2,1.7-2.9,4-4.7,4.1c-1.2-5,4.5-9,8.3-11.7l1.8-1.3
	c0.8-0.6,1.7-1.2,2.7-1.9C298.6,322.2,298.3,322.5,298.1,322.8 M332.9,313.3c-0.8,0.8-3.1,1.6-5,1.6c1-0.7,2.3-1.4,3.4-1.7
	c0.3-0.1,0.6-0.1,0.9-0.1C332.4,313.1,332.7,313.2,332.9,313.3 M308.3,310.6c-0.1,0.1-0.3,0.2-0.4,0.3c2.3-3,4.6-6,7.1-8.9
	c0.3-0.4,0.6-0.8,1-1.2c1-1.3,2.1-2.7,3.4-3.7C316.9,302.1,313.1,306.7,308.3,310.6"/>
<path class="st12" d="M371.1,315.5c0-0.2-0.2-0.4-0.4-0.4c-0.6,0-1.3,0.1-2.2,0.2c-3.3,0.3-8.7,0.8-10.4-0.9c-0.4-0.4-0.6-1-0.5-1.6
	c0.4-3.2,5.6-7,7.8-8.6c2.7-1.9,6-3.7,7.3-3.1c0.3,0.1,0.5,0.5,0.6,1c0.1,0.6-0.2,1.3-0.8,2c-0.6,0.7-1.4,1.3-2,1.3
	c-0.2,0-0.4,0.2-0.4,0.4s0.2,0.4,0.4,0.4c0.8-0.1,1.8-0.7,2.5-1.6c0.7-0.9,1.1-1.8,1-2.6c-0.1-1-0.6-1.4-1-1.6
	c-2.1-0.9-6.7,2.2-8,3.2c-2.3,1.7-7.7,5.6-8.1,9.1c-0.1,0.9,0.1,1.7,0.7,2.3c1.1,1.2,3.4,1.5,5.8,1.5c1.8,0,3.7-0.2,5.2-0.3
	c0.9-0.1,1.6-0.2,2.2-0.2C370.9,315.9,371.1,315.7,371.1,315.5"/>
<path class="st12" d="M386,314.1c0,0,0.1-0.3,0.3-0.5c-1.8-0.3-1.7,0.9-4.2,1.7c0.1-0.1,0.1-0.2,0.2-0.4c2.5-1.2,5.2-3.7,6.7-5.9
	c1.1-1.7,1.4-3.1,0.8-4c-0.3-0.6-0.7-0.7-1-0.7c-1.5,0-3.2,3-5.7,7.6c-0.5,0.8-0.9,1.7-1.3,2.4c-1,0.4-1.8,0.7-2.6,0.6
	c-0.6-0.1-1-0.3-1.4-0.6c-0.6-0.3-1.1-0.7-2.1-0.6c-0.5,0-1.1,0.4-1.7,1c1-1.4,2.3-3,3.3-2.8c0.2,0,0.4-0.1,0.5-0.3
	c0-0.2-0.1-0.4-0.3-0.5c-1.8-0.3-3.6,2.2-4.9,4.1c-0.3,0.4-0.5,0.8-0.7,1l-0.1,0.1l0,0.1c0,0.4,0.2,0.5,0.3,0.6
	c0.4,0.2,0.7-0.1,1.5-0.9c0.6-0.6,1.7-1.6,2.2-1.7c0.8-0.1,1.2,0.2,1.7,0.5c0.4,0.3,0.9,0.6,1.7,0.7c0.6,0.1,1.3,0,2-0.3
	c-0.1,0.1-0.2,0.3-0.2,0.4c-0.5,0.2-1.1,0.3-1.8,0.5c-3.5,1-8.3,2.4-9.8,5.9c-0.8,1.8-0.5,4,0.8,6.5c0.4,0.7,0.8,1.1,1.4,1.1h0
	c1.9,0,4.2-3.7,7.2-8.9c1-1.7,1.9-3.4,2.6-4.3c0,0,0,0,0-0.1c0.4-0.1,0.8-0.3,1-0.4C385,314.8,384.9,314,386,314.1 M383.7,312.3
	c1.6-2.9,4-7.2,5.1-7.2h0c0.1,0,0.2,0,0.3,0.3c0.4,0.7,0.1,1.8-0.8,3.2c-1.2,1.8-3.3,3.7-5.3,5C383.3,313.1,383.5,312.7,383.7,312.3
	 M377.9,320.4c-2.1,3.6-4.9,8.5-6.5,8.5h0c-0.1,0-0.4,0-0.7-0.6c-1.2-2.3-1.4-4.3-0.7-5.9c1.3-3.1,5.9-4.4,9.3-5.4
	c0.3-0.1,0.6-0.2,0.8-0.2C379.4,317.8,378.7,319.1,377.9,320.4"/>
<path class="st13" d="M393,321.8c0,0-2.7-1.2-2.6-1.6c0-0.3,3.2-0.7,3.2-0.7L393,321.8z"/>
<path class="st14" d="M390.9,319.9c-0.3,0.1-0.6,0.2-0.6,0.3c0,0.1,0.2,0.3,0.5,0.5C390.8,320.4,390.9,320.1,390.9,319.9"/>
<path class="st15" d="M405.2,329.1c-0.5-0.3-10.1-5.7-12.6-7.4c-0.3-0.5-0.1-2.1,0.5-2.3c1.9-0.4,14.1-1.5,14.1-1.5L405.2,329.1z"/>
<path class="st3" d="M434,320.8l-26-3c-1.8-0.2-3.8,1-4.4,4.7c-0.7,4.1,0.6,6.4,2.2,6.9l24.3,6L434,320.8z"/>
<path class="st16" d="M404.9,319.2c-0.5,0.6-0.9,1.5-1.2,2.7l24,4.1l1.9-3.8L404.9,319.2z"/>
<path class="st17" d="M433.1,320.8c-2.3-0.7-4.9,1.9-5.6,6.3c-0.6,4.1,0.3,7.6,2.6,8.2l99,20.2l4.1-21.4L433.1,320.8z"/>
<path class="st18" d="M529.4,335.2l-99.8-13c-0.8,0.9-1.5,2.2-1.9,3.8l97.9,15.7C526.4,338.8,527.8,336.5,529.4,335.2"/>
<path class="st18" d="M403.6,322.5c0.3-1.8,1-3.1,1.8-3.8c-3.4,0.6-10.5,0.7-12.7,1.1c-0.2,0.3-0.2,0.8-0.3,1.1l11.1,2.5
	C403.5,323.1,403.5,322.8,403.6,322.5"/>
<path class="st3" d="M533.2,334.2c-2.1-0.4-4.3,1.1-5.9,3.6c-0.3-0.1-0.6-0.1-1-0.2l-42.5-4.6c-1.4-0.1-2.7,1.4-3,3.5
	c-0.3,2.1,0.5,4,1.8,4.3l41.8,9c0.2,0,0.4,0.1,0.5,0.1c0.6,3,2.1,5.3,4.2,5.7c3.4,0.7,7.1-3.6,8.2-9.5
	C538.4,340.1,536.6,334.8,533.2,334.2"/>
<path class="st19" d="M290.3,71.4l-26,12.1v22.3c0,16.9,10.9,31.3,26,36.5c15.1-5.3,26-19.6,26-36.5V83.5L290.3,71.4z"/>
<path class="st7" d="M290.3,76.8V137c12.7-5.1,21-17.5,21-31.2V86.6L290.3,76.8z"/>
<path class="st20" d="M269.3,86.6v19.1c0,13.8,8.4,26.1,21,31.2V76.8L269.3,86.6z"/>
<g class="st21">
	<g>
		<defs>
			<rect id="SVGID_10_" x="61.6" y="77.8" width="295.5" height="366.1"/>
		</defs>
		<clipPath id="SVGID_11_">
			<use xlink:href="#SVGID_10_"  style="overflow:visible;"/>
		</clipPath>
		<path class="st22" d="M84.6,77.8c-12.7,0-23,10.3-23,23v343.1h63.2L357.1,77.8H84.6z"/>
	</g>
</g>
<polygon class="st23" points="64.1,336.1 64.1,362.7 64.1,448.8 9.6,418.6 9.8,332.5 9.8,306 "/>
<polygon class="st24" points="167,321.5 64.1,336.1 9.8,306 112.5,291.3 "/>
<path class="st17" d="M167,321.5l-0.2,82.7c0,16.5-12.3,31.7-27.3,33.8l-75.4,10.8v-86v-26.7L167,321.5z"/>
<path class="st24" d="M139.9,410.9c-1.2-0.3-2.4-0.3-3.7-0.1c-1.7,0.2-3.4,0.8-5.1,1.3c-1.7,0.5-3.4,1-5.1,1.3
	c-0.7,0.1-1.3,0.1-2,0.1c-0.4,0-0.8,0-1.2-0.1c-0.1,0-0.2,0-0.4-0.1c-0.2,0-0.5-0.1-0.7-0.1c-0.3-0.1-0.5-0.1-0.8-0.2
	c-0.1,0-0.1,0-0.1-0.1c-0.2-0.1-0.4-0.2-0.6-0.3l1.4,0.8c0.1,0,0.1,0.1,0.2,0.1c0.1,0.1,0.3,0.1,0.4,0.2c0,0,0.1,0,0.1,0.1
	c0.2,0.1,0.5,0.2,0.7,0.2c0,0,0,0,0.1,0c0.2,0.1,0.4,0.1,0.7,0.1c0.1,0,0.2,0,0.4,0.1c0.4,0,0.8,0.1,1.2,0.1c0.7,0,1.3,0,2-0.1
	c1.7-0.2,3.4-0.8,5.1-1.3c1.7-0.5,3.4-1.1,5.1-1.3c1.3-0.2,2.5-0.2,3.7,0.1L139.9,410.9z"/>
<g>
	<defs>
		<path id="SVGID_12_" d="M141.4,411.7c0,0,0.1,0,0.1,0.1L140,411c0,0-0.1,0-0.1-0.1L141.4,411.7z"/>
	</defs>
	<clipPath id="SVGID_13_">
		<use xlink:href="#SVGID_12_"  style="overflow:visible;"/>
	</clipPath>
	<path class="st25" d="M141.4,411.7l-1.4-0.8c0,0,0,0,0.1,0L141.4,411.7C141.4,411.7,141.4,411.7,141.4,411.7"/>
	<path class="st26" d="M141.4,411.7l-1.4-0.8c0,0,0,0,0.1,0L141.4,411.7C141.4,411.7,141.4,411.7,141.4,411.7"/>
</g>
<g>
	<defs>
		<path id="SVGID_14_" d="M114.4,414.7l1.4,0.8c-1.6-0.9-2.9-2.1-3.7-3.9l-1.4-0.8C111.5,412.6,112.8,413.9,114.4,414.7"/>
	</defs>
	<clipPath id="SVGID_15_">
		<use xlink:href="#SVGID_14_"  style="overflow:visible;"/>
	</clipPath>
	<path class="st27" d="M115.8,415.5l-1.4-0.8c-1.6-0.9-2.9-2.1-3.7-3.9l1.4,0.8C112.9,413.4,114.2,414.6,115.8,415.5"/>
</g>
<path class="st24" d="M102.6,412.6C102.6,412.6,102.6,412.6,102.6,412.6c0.5-0.4,0.9-0.8,1.3-1.1c0,0,0,0,0.1-0.1
	c0.4-0.3,0.8-0.7,1.3-1c0,0,0,0,0.1,0c0.4-0.2,0.7-0.5,1.1-0.7c0,0,0.1-0.1,0.1-0.1c0.4-0.2,0.7-0.4,1.1-0.6c0.1,0,0.2-0.1,0.3-0.1
	c0.2-0.1,0.3-0.1,0.5-0.2c0.1,0,0.2-0.1,0.3-0.1c0.2-0.1,0.3-0.1,0.5-0.2c0.1,0,0.2-0.1,0.3-0.1c0.2-0.1,0.4-0.1,0.5-0.1
	c0.1,0,0.2-0.1,0.3-0.1c0.3-0.1,0.6-0.1,0.8-0.2c0.4-0.1,0.7-0.1,1.1-0.1c0.1,0,0.2,0,0.3,0c0.3,0,0.5,0,0.8,0c0.1,0,0.2,0,0.3,0
	c0.3,0,0.7,0.1,1.1,0.2c0,0,0.1,0,0.1,0c0.4,0.1,0.8,0.2,1.3,0.4l-1.4-0.8c-0.4-0.2-0.8-0.3-1.3-0.4c0,0,0,0,0,0c0,0-0.1,0-0.1,0
	c-0.4-0.1-0.7-0.1-1.1-0.2c-0.1,0-0.2,0-0.3,0c-0.3,0-0.5,0-0.8,0c-0.1,0-0.2,0-0.3,0c-0.4,0-0.7,0-1.1,0.1c-0.3,0-0.6,0.1-0.8,0.2
	c-0.1,0-0.2,0-0.3,0.1c-0.2,0-0.4,0.1-0.5,0.1c-0.1,0-0.2,0.1-0.3,0.1c-0.2,0.1-0.3,0.1-0.5,0.2c-0.1,0-0.2,0.1-0.3,0.1
	c-0.2,0.1-0.3,0.1-0.5,0.2c0,0-0.1,0-0.1,0.1c0,0-0.1,0-0.1,0.1c-0.4,0.2-0.7,0.4-1.1,0.6c0,0-0.1,0.1-0.1,0.1
	c-0.4,0.2-0.7,0.4-1.1,0.7c0,0,0,0-0.1,0c0,0,0,0,0,0c-0.4,0.3-0.9,0.6-1.3,1c0,0,0,0-0.1,0.1c-0.4,0.3-0.8,0.7-1.2,1c0,0,0,0-0.1,0
	c0,0,0,0,0,0c-0.4,0.4-0.8,0.8-1.2,1.1c0,0,0,0,0,0c-0.4,0.4-0.8,0.8-1.2,1.2c0,0,0,0,0,0l1.4,0.8c0.4-0.4,0.8-0.8,1.2-1.2
	c0,0,0,0,0,0C101.8,413.4,102.2,413,102.6,412.6"/>
<path class="st23" d="M94.4,417.7c-0.6-1.6-0.5-3.2-1.9-4.5c-0.1-0.1-0.2-0.2-0.2-0.3c0,0,0-0.1,0-0.1c0-0.1,0-0.1,0-0.2
	c0-0.1,0.1-0.2,0.1-0.2c0,0,0,0,0,0c0.1-0.1,0.2-0.1,0.3-0.2c0,0,0.1-0.1,0.2-0.1c0.1,0,0.1-0.1,0.2-0.1c0,0,0.1,0,0.1-0.1
	c0.1,0,0.2-0.1,0.3-0.1c0.1,0,0.1,0,0.2-0.1c0.1,0,0.2-0.1,0.3-0.1c0.1,0,0.1,0,0.2,0c0.2,0,0.4-0.1,0.5-0.1c0.2,0,0.5-0.1,0.7-0.1
	c0.1,0,0.1,0,0.2,0c0.2,0,0.3,0,0.5,0c0.1,0,0.1,0,0.2,0c0.2,0,0.3,0,0.5,0.1c0,0,0.1,0,0.1,0c0.2,0,0.4,0.1,0.5,0.2l-1.4-0.8
	c0,0,0,0-0.1,0c-0.1-0.1-0.3-0.1-0.4-0.2c0,0,0,0,0,0c0,0-0.1,0-0.1,0c-0.2,0-0.3-0.1-0.5-0.1c-0.1,0-0.1,0-0.2,0
	c-0.2,0-0.3,0-0.5,0c-0.1,0-0.1,0-0.2,0c-0.2,0-0.5,0-0.7,0.1c-0.2,0-0.4,0.1-0.5,0.1c-0.1,0-0.1,0-0.2,0c-0.1,0-0.2,0.1-0.3,0.1
	c-0.1,0-0.1,0-0.2,0.1c-0.1,0-0.2,0.1-0.3,0.1c0,0-0.1,0-0.1,0.1c0,0,0,0-0.1,0c-0.1,0-0.1,0.1-0.2,0.1c-0.1,0-0.1,0.1-0.2,0.1
	c0,0,0,0,0,0c-0.1,0-0.1,0.1-0.2,0.1c0,0,0,0-0.1,0.1l0,0c0,0,0,0,0,0c0,0,0,0-0.1,0.1c0,0,0,0,0,0.1c0,0,0,0,0,0.1c0,0,0,0,0,0
	c0,0.1,0,0.1,0,0.2c0,0,0,0.1,0,0.1c0,0.1,0.1,0.2,0.2,0.3c1.4,1.4,1.3,3,1.9,4.5c0.7,1.7,1.5,2.6,2.3,3.1l1.4,0.8
	C95.9,420.4,95.1,419.4,94.4,417.7"/>
<path class="st4" d="M111.1,408c1.6-0.2,3.3-0.1,5,0.6c3.8,2,3.8,5.6,9.4,5.6c0.7,0,1.3,0,2-0.1c1.7-0.2,3.4-0.8,5.1-1.3
	c1.7-0.5,3.4-1.1,5.1-1.3c1.3-0.2,2.5-0.2,3.7,0.1c1,0.5,0.2,1.3-0.9,1.6c-3.7,1.4-8.3,2.8-12.7,3.5c-6.8,1-13.2,0.1-15.7-5.2
	c-4.1,1.5-9.4,9-13.5,9.6c-1.6,0.2-3.1-0.6-4.2-3.4c-0.6-1.6-0.5-3.2-1.9-4.5c-0.8-0.8,0.7-1.4,2.3-1.7c1.2-0.2,2.5-0.1,3,0.4
	c1.1,1.1,1.9,1.8,2.4,3.1C103.1,411.9,106.9,408.6,111.1,408"/>
<path class="st23" d="M136.2,369.4c0,0,0-0.1,0-0.1c0-0.1,0-0.2-0.1-0.3c0,0,0-0.1,0-0.1c-0.1-0.1-0.1-0.2-0.2-0.3l-0.8-0.8
	l-1.4-0.8l0.8,0.8c0.1,0.1,0.2,0.2,0.2,0.3c0,0,0,0.1,0,0.1c0,0.1,0,0.2,0.1,0.3c0,0,0,0.1,0,0.1c0,0.1,0,0.3-0.1,0.4c0,0,0,0,0,0
	c-0.1,0.2-0.1,0.3-0.3,0.4l1.4,0.8c0,0,0-0.1,0.1-0.1c0-0.1,0.1-0.1,0.1-0.2c0-0.1,0.1-0.1,0.1-0.2c0,0,0,0,0,0c0,0,0,0,0,0
	C136.2,369.6,136.2,369.5,136.2,369.4"/>
<g>
	<defs>
		<path id="SVGID_16_" d="M133.6,366.9l1.4,0.8c-0.1-0.1-0.1-0.1-0.2-0.1l-1.4-0.8C133.5,366.8,133.5,366.9,133.6,366.9"/>
	</defs>
	<clipPath id="SVGID_17_">
		<use xlink:href="#SVGID_16_"  style="overflow:visible;"/>
	</clipPath>
	<path class="st28" d="M135,367.7l-1.4-0.8c-0.1-0.1-0.1-0.1-0.2-0.1l1.4,0.8C134.9,367.6,135,367.6,135,367.7"/>
</g>
<path class="st24" d="M128,384.8c0-0.1-0.1-0.1-0.1-0.2c-0.1-0.1-0.2-0.3-0.2-0.5c0-0.1-0.1-0.1-0.1-0.2c-0.1-0.2-0.1-0.4-0.2-0.7
	c0,0,0,0,0,0c0-0.2-0.1-0.5-0.1-0.7c0-0.1,0-0.1,0-0.2c0-0.2,0-0.4,0.1-0.6c0-0.1,0-0.2,0-0.2c0-0.2,0.1-0.4,0.2-0.7
	c0,0,0-0.1,0-0.1c0.1-0.3,0.2-0.5,0.3-0.8c0,0,0.1-0.1,0.1-0.1c0.1-0.2,0.3-0.5,0.5-0.7l7.4-8.9l-1.4-0.8l-7.4,8.9
	c-0.1,0.1-0.2,0.2-0.3,0.3c-0.1,0.1-0.1,0.2-0.2,0.3c0,0-0.1,0.1-0.1,0.1c0,0,0,0,0,0.1c-0.1,0.2-0.2,0.4-0.3,0.7c0,0,0,0,0,0
	c0,0,0,0.1,0,0.1c-0.1,0.2-0.1,0.4-0.2,0.7c0,0.1,0,0.2,0,0.2c0,0.2,0,0.4,0,0.6c0,0.1,0,0.1,0,0.2c0,0.3,0,0.5,0.1,0.7c0,0,0,0,0,0
	c0,0.2,0.1,0.4,0.2,0.7c0,0.1,0.1,0.1,0.1,0.2c0.1,0.2,0.2,0.3,0.2,0.5c0,0.1,0.1,0.1,0.1,0.2c0.1,0.2,0.3,0.4,0.5,0.6
	c0.1,0.1,0.1,0.1,0.2,0.1l1.4,0.8c-0.1,0-0.1-0.1-0.2-0.1C128.3,385.2,128.2,385,128,384.8"/>
<g>
	<defs>
		<path id="SVGID_18_" d="M128.5,370l1.4,0.8c-0.1,0-0.1-0.1-0.2-0.2l-1.4-0.8C128.3,369.9,128.4,369.9,128.5,370"/>
	</defs>
	<clipPath id="SVGID_19_">
		<use xlink:href="#SVGID_18_"  style="overflow:visible;"/>
	</clipPath>
	<path class="st29" d="M129.9,370.8l-1.4-0.8c-0.1,0-0.1-0.1-0.2-0.2l1.4,0.8C129.8,370.7,129.8,370.7,129.9,370.8"/>
</g>
<polygon class="st23" points="129.7,370.6 128.3,369.8 120.2,362.2 121.6,363 "/>
<path class="st4" d="M140.4,364.8c1.2,1.2,2.5,2.3,2.4,3.7c-0.1,1.4-1.4,3-2.7,4.6l-9.9,12.1c-0.2,0.3-0.5,0.4-0.8,0.5
	c-0.3,0-0.6,0-0.8-0.3c-1.6-1.5-1.6-4.2,0-6.2l7.4-8.9c0.5-0.6,0.5-1.4,0-1.8l-0.8-0.8c-0.2-0.2-0.5-0.3-0.8-0.3
	c-0.3,0-0.6,0.2-0.8,0.5l-2,2.5c-0.2,0.3-0.5,0.4-0.8,0.5c-0.3,0-0.6,0-0.8-0.3l-8.1-7.6c-0.5-0.4-0.5-1.2,0-1.8l9.2-11.1
	c0.5-0.6,1.2-1,1.9-1.1c0.7-0.1,1.3,0.1,1.8,0.6l6.1,5.7c1,0.9,1,2.7,0,3.9c-0.9,1.1-1.7,2.1-1.8,3.1
	C138.7,363.2,139.5,364,140.4,364.8"/>
<path class="st24" d="M131.6,349.4c0.1,0,0.1-0.1,0.2-0.1c0.1-0.1,0.2-0.1,0.3-0.1c0,0,0.1,0,0.1-0.1c0.2-0.1,0.3-0.1,0.5-0.1
	c0.2,0,0.4,0,0.6,0c0,0,0.1,0,0.1,0c0.2,0,0.4,0.1,0.6,0.2l-1.4-0.8c0,0,0,0-0.1,0c-0.1-0.1-0.3-0.1-0.4-0.1c0,0-0.1,0-0.1,0
	c0,0-0.1,0-0.1,0c-0.2,0-0.4,0-0.6,0c-0.2,0-0.3,0.1-0.5,0.1c0,0-0.1,0-0.1,0.1c-0.1,0-0.1,0-0.2,0.1c0,0-0.1,0-0.1,0.1
	c-0.1,0-0.1,0.1-0.2,0.1c0,0-0.1,0-0.1,0.1c-0.1,0-0.1,0.1-0.2,0.1c0,0-0.1,0-0.1,0.1c0,0,0,0,0,0c-0.1,0.1-0.2,0.2-0.3,0.3
	c0,0,0,0.1-0.1,0.1l-9.2,11.1c0,0-0.1,0.1-0.1,0.1c0,0-0.1,0.1-0.1,0.2c0,0.1-0.1,0.1-0.1,0.2c0,0,0,0,0,0c0,0,0,0,0,0
	c0,0.1-0.1,0.3-0.1,0.4c0,0,0,0.1,0,0.1c0,0.1,0,0.2,0.1,0.3c0,0,0,0.1,0,0.1c0.1,0.1,0.1,0.3,0.2,0.3l1.4,0.8
	c-0.1-0.1-0.2-0.2-0.2-0.3c0,0,0-0.1,0-0.1c0-0.1-0.1-0.2-0.1-0.3c0,0,0-0.1,0-0.1c0-0.1,0-0.3,0.1-0.4c0,0,0,0,0,0
	c0.1-0.2,0.1-0.3,0.3-0.5l9.2-11.1c0.1-0.1,0.2-0.3,0.4-0.4c0,0,0.1-0.1,0.1-0.1C131.4,349.6,131.5,349.5,131.6,349.4"/>
<path class="st24" d="M116,368.6c0.1,0,0.2,0,0.4,0c0.1,0,0.2,0,0.3,0.1l-1.4-0.8c0,0,0,0,0,0c-0.1,0-0.1-0.1-0.2-0.1c0,0,0,0,0,0
	c-0.1,0-0.2,0-0.4,0c-0.1,0-0.2,0.1-0.3,0.1c0,0,0,0-0.1,0c0,0,0,0,0,0c0,0,0,0-0.1,0c0,0-0.1,0.1-0.1,0.1c0,0-0.1,0.1-0.1,0.1
	c0,0,0,0,0,0l-20.4,24.8l1.4,0.8l20.4-24.8c0.1-0.1,0.2-0.2,0.4-0.3c0,0,0,0,0,0C115.7,368.7,115.9,368.6,116,368.6"/>
<path class="st23" d="M94.5,403.6l0-8.7c0-0.2,0-0.3,0.1-0.5c0.1-0.2,0.1-0.3,0.3-0.4l-1.4-0.8c0,0,0,0.1-0.1,0.1
	c0,0-0.1,0.1-0.1,0.2c0,0.1-0.1,0.1-0.1,0.2v0c-0.1,0.2-0.1,0.3-0.1,0.5l0,8.7c0,0.4,0.2,0.8,0.5,1l1.4,0.8
	C94.7,404.4,94.4,404,94.5,403.6"/>
<path class="st4" d="M116.8,368.9l8.1,7.6c0.5,0.4,0.5,1.2,0,1.8l-20.4,24.8c-0.2,0.3-0.5,0.4-0.8,0.5l-8.1,1.1
	c-0.6,0.1-1.2-0.4-1.2-1.1l0-8.7c0-0.3,0.1-0.7,0.3-0.9l20.4-24.8c0.2-0.3,0.5-0.4,0.8-0.5C116.3,368.6,116.6,368.7,116.8,368.9"/>
<polygon class="st24" points="16.8,328.2 20.9,327.7 27.2,331.5 23.4,332 "/>
<polygon class="st30" points="30.5,387.8 34.7,387.3 29,402.4 24.9,403 "/>
<polygon class="st24" points="23.1,332 27.2,331.5 35.4,367 31.2,367.5 "/>
<polygon class="st24" points="33.9,378.9 38,378.4 48.9,426.1 45,426.4 "/>
<polygon class="st30" points="42.7,355.2 46.8,354.7 38,378.4 33.9,378.9 "/>
<polygon class="st24" points="37.2,351.4 41.3,350.9 46.8,354.7 42.7,355.2 "/>
<polygon class="st4" points="23,331.7 31.2,367.5 37.2,351.4 42.7,355.2 33.9,378.9 45,426.4 38.6,423 30.5,387.8 24.9,403 
	19.3,399.9 27.9,376.5 16.8,328.2 "/>
<line class="st31" x1="633" y1="485" x2="633" y2="-15"/>
<g class="st32">
	<g>
		<defs>
			<rect id="SVGID_20_" x="33" y="50.8" width="600" height="367.4"/>
		</defs>
		<clipPath id="SVGID_21_">
			<use xlink:href="#SVGID_20_"  style="overflow:visible;"/>
		</clipPath>
	</g>
</g>
</svg>
